solid OpenSCAD_Model
  facet normal -1.000000 -0.000000 -0.000000
    outer loop
      vertex -8.000000 -25.000000 0.000000
      vertex -8.000000 -25.000000 3.000000
      vertex -8.000000 25.000000 0.000000
    endloop
  endfacet
  facet normal -1.000000 0.000000 0.000000
    outer loop
      vertex -8.000000 25.000000 0.000000
      vertex -8.000000 -25.000000 3.000000
      vertex -8.000000 -15.500000 3.000000
    endloop
  endfacet
  facet normal -1.000000 0.000000 0.000000
    outer loop
      vertex -8.000000 -6.500000 3.000000
      vertex -8.000000 -15.500000 3.000000
      vertex -8.000000 -15.500000 13.000000
    endloop
  endfacet
  facet normal -1.000000 0.000000 0.000000
    outer loop
      vertex -8.000000 25.000000 0.000000
      vertex -8.000000 -15.500000 3.000000
      vertex -8.000000 -6.500000 3.000000
    endloop
  endfacet
  facet normal -1.000000 0.000000 0.000000
    outer loop
      vertex -8.000000 25.000000 3.000000
      vertex -8.000000 25.000000 0.000000
      vertex -8.000000 15.500000 3.000000
    endloop
  endfacet
  facet normal -1.000000 0.000000 0.000000
    outer loop
      vertex -8.000000 25.000000 0.000000
      vertex -8.000000 -6.500000 3.000000
      vertex -8.000000 6.500000 3.000000
    endloop
  endfacet
  facet normal -1.000000 0.000000 0.000000
    outer loop
      vertex -8.000000 6.500000 13.000000
      vertex -8.000000 15.500000 3.000000
      vertex -8.000000 6.500000 3.000000
    endloop
  endfacet
  facet normal -1.000000 0.000000 0.000000
    outer loop
      vertex -8.000000 15.500000 3.000000
      vertex -8.000000 6.500000 13.000000
      vertex -8.000000 15.500000 13.000000
    endloop
  endfacet
  facet normal -1.000000 0.000000 0.000000
    outer loop
      vertex -8.000000 25.000000 0.000000
      vertex -8.000000 6.500000 3.000000
      vertex -8.000000 15.500000 3.000000
    endloop
  endfacet
  facet normal -1.000000 0.000000 0.000000
    outer loop
      vertex -8.000000 -6.500000 3.000000
      vertex -8.000000 -15.500000 13.000000
      vertex -8.000000 -6.500000 13.000000
    endloop
  endfacet
  facet normal 0.000000 -1.000000 0.000000
    outer loop
      vertex -8.000000 -25.000000 3.000000
      vertex -8.000000 -25.000000 0.000000
      vertex 8.000000 -25.000000 0.000000
    endloop
  endfacet
  facet normal 0.000000 -1.000000 0.000000
    outer loop
      vertex 8.000000 -25.000000 3.000000
      vertex -8.000000 -25.000000 3.000000
      vertex 8.000000 -25.000000 0.000000
    endloop
  endfacet
  facet normal -0.000000 -0.000000 -1.000000
    outer loop
      vertex 1.800000 -20.000000 0.000000
      vertex -8.000000 25.000000 0.000000
      vertex 8.000000 -25.000000 0.000000
    endloop
  endfacet
  facet normal 0.000000 -0.000000 -1.000000
    outer loop
      vertex 0.900000 21.558846 0.000000
      vertex -8.000000 25.000000 0.000000
      vertex 8.000000 25.000000 0.000000
    endloop
  endfacet
  facet normal 0.000000 -0.000000 -1.000000
    outer loop
      vertex -8.000000 -25.000000 0.000000
      vertex -8.000000 25.000000 0.000000
      vertex -1.800000 -20.000000 0.000000
    endloop
  endfacet
  facet normal 0.000000 0.000000 -1.000000
    outer loop
      vertex -8.000000 -25.000000 0.000000
      vertex -1.800000 -20.000000 0.000000
      vertex -0.900000 -21.558846 0.000000
    endloop
  endfacet
  facet normal -0.000000 0.000000 -1.000000
    outer loop
      vertex -8.000000 -25.000000 0.000000
      vertex -0.900000 -21.558846 0.000000
      vertex 8.000000 -25.000000 0.000000
    endloop
  endfacet
  facet normal 0.000000 0.000000 -1.000000
    outer loop
      vertex -0.900000 -21.558846 0.000000
      vertex 0.900000 -21.558846 0.000000
      vertex 8.000000 -25.000000 0.000000
    endloop
  endfacet
  facet normal -0.000000 -0.000000 -1.000000
    outer loop
      vertex 0.900000 -18.441154 0.000000
      vertex -8.000000 25.000000 0.000000
      vertex 1.800000 -20.000000 0.000000
    endloop
  endfacet
  facet normal -0.000000 0.000000 -1.000000
    outer loop
      vertex 0.900000 21.558846 0.000000
      vertex 8.000000 25.000000 0.000000
      vertex 1.800000 20.000000 0.000000
    endloop
  endfacet
  facet normal -0.000000 -0.000000 -1.000000
    outer loop
      vertex -0.900000 -18.441154 0.000000
      vertex -8.000000 25.000000 0.000000
      vertex 0.900000 -18.441154 0.000000
    endloop
  endfacet
  facet normal 0.000000 -0.000000 -1.000000
    outer loop
      vertex -1.800000 -20.000000 0.000000
      vertex -8.000000 25.000000 0.000000
      vertex -0.900000 -18.441154 0.000000
    endloop
  endfacet
  facet normal 0.000000 0.000000 -1.000000
    outer loop
      vertex 8.000000 -25.000000 0.000000
      vertex -8.000000 25.000000 0.000000
      vertex -1.800000 20.000000 0.000000
    endloop
  endfacet
  facet normal 0.000000 0.000000 -1.000000
    outer loop
      vertex 8.000000 -25.000000 0.000000
      vertex -1.800000 20.000000 0.000000
      vertex -0.900000 18.441154 0.000000
    endloop
  endfacet
  facet normal 0.000000 0.000000 -1.000000
    outer loop
      vertex 8.000000 -25.000000 0.000000
      vertex -0.900000 18.441154 0.000000
      vertex 0.900000 18.441154 0.000000
    endloop
  endfacet
  facet normal 0.000000 0.000000 -1.000000
    outer loop
      vertex 8.000000 -25.000000 0.000000
      vertex 0.900000 18.441154 0.000000
      vertex 8.000000 25.000000 0.000000
    endloop
  endfacet
  facet normal 0.000000 0.000000 -1.000000
    outer loop
      vertex 0.900000 18.441154 0.000000
      vertex 1.800000 20.000000 0.000000
      vertex 8.000000 25.000000 0.000000
    endloop
  endfacet
  facet normal -0.000000 -0.000000 -1.000000
    outer loop
      vertex -0.900000 21.558846 0.000000
      vertex -8.000000 25.000000 0.000000
      vertex 0.900000 21.558846 0.000000
    endloop
  endfacet
  facet normal 0.000000 -0.000000 -1.000000
    outer loop
      vertex -1.800000 20.000000 0.000000
      vertex -8.000000 25.000000 0.000000
      vertex -0.900000 21.558846 0.000000
    endloop
  endfacet
  facet normal 0.000000 0.000000 -1.000000
    outer loop
      vertex 1.800000 -20.000000 0.000000
      vertex 8.000000 -25.000000 0.000000
      vertex 0.900000 -21.558846 0.000000
    endloop
  endfacet
  facet normal 0.000000 1.000000 0.000000
    outer loop
      vertex -8.000000 25.000000 0.000000
      vertex -8.000000 25.000000 3.000000
      vertex 8.000000 25.000000 0.000000
    endloop
  endfacet
  facet normal 0.000000 1.000000 0.000000
    outer loop
      vertex 8.000000 25.000000 0.000000
      vertex -8.000000 25.000000 3.000000
      vertex 8.000000 25.000000 3.000000
    endloop
  endfacet
  facet normal 0.000000 -0.000000 1.000000
    outer loop
      vertex -0.900000 18.441154 3.000000
      vertex -8.000000 15.500000 3.000000
      vertex 8.000000 15.500000 3.000000
    endloop
  endfacet
  facet normal 0.000000 -0.000000 1.000000
    outer loop
      vertex 0.900000 18.441154 3.000000
      vertex -0.900000 18.441154 3.000000
      vertex 8.000000 15.500000 3.000000
    endloop
  endfacet
  facet normal 0.000000 -0.000000 1.000000
    outer loop
      vertex -8.000000 25.000000 3.000000
      vertex -8.000000 15.500000 3.000000
      vertex -0.900000 18.441154 3.000000
    endloop
  endfacet
  facet normal 0.000000 0.000000 1.000000
    outer loop
      vertex -8.000000 25.000000 3.000000
      vertex -0.900000 18.441154 3.000000
      vertex -1.800000 20.000000 3.000000
    endloop
  endfacet
  facet normal 0.000000 0.000000 1.000000
    outer loop
      vertex 8.000000 25.000000 3.000000
      vertex -8.000000 25.000000 3.000000
      vertex -0.900000 21.558846 3.000000
    endloop
  endfacet
  facet normal 0.000000 0.000000 1.000000
    outer loop
      vertex 8.000000 25.000000 3.000000
      vertex 0.900000 21.558846 3.000000
      vertex 8.000000 15.500000 3.000000
    endloop
  endfacet
  facet normal 0.000000 0.000000 1.000000
    outer loop
      vertex 8.000000 25.000000 3.000000
      vertex -0.900000 21.558846 3.000000
      vertex 0.900000 21.558846 3.000000
    endloop
  endfacet
  facet normal 0.000000 0.000000 1.000000
    outer loop
      vertex 0.900000 21.558846 3.000000
      vertex 1.800000 20.000000 3.000000
      vertex 8.000000 15.500000 3.000000
    endloop
  endfacet
  facet normal 0.000000 0.000000 1.000000
    outer loop
      vertex -1.800000 20.000000 3.000000
      vertex -0.900000 21.558846 3.000000
      vertex -8.000000 25.000000 3.000000
    endloop
  endfacet
  facet normal 0.000000 -0.000000 1.000000
    outer loop
      vertex 1.800000 20.000000 3.000000
      vertex 0.900000 18.441154 3.000000
      vertex 8.000000 15.500000 3.000000
    endloop
  endfacet
  facet normal 0.000000 1.000000 0.000000
    outer loop
      vertex -8.000000 15.500000 3.000000
      vertex -8.000000 15.500000 13.000000
      vertex 8.000000 15.500000 3.000000
    endloop
  endfacet
  facet normal 0.000000 1.000000 0.000000
    outer loop
      vertex 0.309017 15.500000 10.951057
      vertex -8.000000 15.500000 13.000000
      vertex 8.000000 15.500000 13.000000
    endloop
  endfacet
  facet normal 0.000000 1.000000 0.000000
    outer loop
      vertex -0.809017 15.500000 9.412215
      vertex -8.000000 15.500000 13.000000
      vertex -0.809017 15.500000 10.587785
    endloop
  endfacet
  facet normal 0.000000 1.000000 0.000000
    outer loop
      vertex 8.000000 15.500000 3.000000
      vertex -8.000000 15.500000 13.000000
      vertex -0.809017 15.500000 9.412215
    endloop
  endfacet
  facet normal 0.000000 1.000000 0.000000
    outer loop
      vertex 8.000000 15.500000 3.000000
      vertex -0.809017 15.500000 9.412215
      vertex 0.309017 15.500000 9.048943
    endloop
  endfacet
  facet normal 0.000000 1.000000 0.000000
    outer loop
      vertex 0.309017 15.500000 10.951057
      vertex 8.000000 15.500000 13.000000
      vertex 1.000000 15.500000 10.000000
    endloop
  endfacet
  facet normal 0.000000 1.000000 0.000000
    outer loop
      vertex 8.000000 15.500000 3.000000
      vertex 1.000000 15.500000 10.000000
      vertex 8.000000 15.500000 13.000000
    endloop
  endfacet
  facet normal 0.000000 1.000000 0.000000
    outer loop
      vertex -0.809017 15.500000 10.587785
      vertex -8.000000 15.500000 13.000000
      vertex 0.309017 15.500000 10.951057
    endloop
  endfacet
  facet normal 0.000000 1.000000 -0.000000
    outer loop
      vertex 1.000000 15.500000 10.000000
      vertex 8.000000 15.500000 3.000000
      vertex 0.309017 15.500000 9.048943
    endloop
  endfacet
  facet normal 0.000000 -0.000000 1.000000
    outer loop
      vertex -8.000000 15.500000 13.000000
      vertex -8.000000 6.500000 13.000000
      vertex 8.000000 6.500000 13.000000
    endloop
  endfacet
  facet normal 0.000000 0.000000 1.000000
    outer loop
      vertex 8.000000 15.500000 13.000000
      vertex -8.000000 15.500000 13.000000
      vertex 8.000000 6.500000 13.000000
    endloop
  endfacet
  facet normal 0.000000 -1.000000 0.000000
    outer loop
      vertex -8.000000 6.500000 13.000000
      vertex -8.000000 6.500000 3.000000
      vertex 8.000000 6.500000 3.000000
    endloop
  endfacet
  facet normal 0.000000 -1.000000 0.000000
    outer loop
      vertex -0.809017 6.500000 9.412215
      vertex -8.000000 6.500000 13.000000
      vertex 8.000000 6.500000 3.000000
    endloop
  endfacet
  facet normal 0.000000 -1.000000 0.000000
    outer loop
      vertex 0.309017 6.500000 9.048943
      vertex -0.809017 6.500000 9.412215
      vertex 8.000000 6.500000 3.000000
    endloop
  endfacet
  facet normal 0.000000 -1.000000 0.000000
    outer loop
      vertex -0.809017 6.500000 10.587785
      vertex -8.000000 6.500000 13.000000
      vertex -0.809017 6.500000 9.412215
    endloop
  endfacet
  facet normal 0.000000 -1.000000 0.000000
    outer loop
      vertex 0.309017 6.500000 10.951057
      vertex -8.000000 6.500000 13.000000
      vertex -0.809017 6.500000 10.587785
    endloop
  endfacet
  facet normal 0.000000 -1.000000 0.000000
    outer loop
      vertex 8.000000 6.500000 13.000000
      vertex -8.000000 6.500000 13.000000
      vertex 0.309017 6.500000 10.951057
    endloop
  endfacet
  facet normal 0.000000 -1.000000 0.000000
    outer loop
      vertex 8.000000 6.500000 13.000000
      vertex 1.000000 6.500000 10.000000
      vertex 8.000000 6.500000 3.000000
    endloop
  endfacet
  facet normal 0.000000 -1.000000 0.000000
    outer loop
      vertex 1.000000 6.500000 10.000000
      vertex 0.309017 6.500000 9.048943
      vertex 8.000000 6.500000 3.000000
    endloop
  endfacet
  facet normal -0.000000 -1.000000 0.000000
    outer loop
      vertex 0.309017 6.500000 10.951057
      vertex 1.000000 6.500000 10.000000
      vertex 8.000000 6.500000 13.000000
    endloop
  endfacet
  facet normal 0.000000 -0.000000 1.000000
    outer loop
      vertex -8.000000 6.500000 3.000000
      vertex -8.000000 -6.500000 3.000000
      vertex 8.000000 -6.500000 3.000000
    endloop
  endfacet
  facet normal 0.000000 0.000000 1.000000
    outer loop
      vertex 8.000000 6.500000 3.000000
      vertex -8.000000 6.500000 3.000000
      vertex 8.000000 -6.500000 3.000000
    endloop
  endfacet
  facet normal 0.000000 1.000000 0.000000
    outer loop
      vertex -8.000000 -6.500000 3.000000
      vertex -8.000000 -6.500000 13.000000
      vertex 8.000000 -6.500000 3.000000
    endloop
  endfacet
  facet normal 0.000000 1.000000 0.000000
    outer loop
      vertex 0.309017 -6.500000 10.951057
      vertex -8.000000 -6.500000 13.000000
      vertex 8.000000 -6.500000 13.000000
    endloop
  endfacet
  facet normal 0.000000 1.000000 0.000000
    outer loop
      vertex -0.809017 -6.500000 9.412215
      vertex -8.000000 -6.500000 13.000000
      vertex -0.809017 -6.500000 10.587785
    endloop
  endfacet
  facet normal 0.000000 1.000000 0.000000
    outer loop
      vertex 8.000000 -6.500000 3.000000
      vertex -8.000000 -6.500000 13.000000
      vertex -0.809017 -6.500000 9.412215
    endloop
  endfacet
  facet normal 0.000000 1.000000 0.000000
    outer loop
      vertex 8.000000 -6.500000 3.000000
      vertex -0.809017 -6.500000 9.412215
      vertex 0.309017 -6.500000 9.048943
    endloop
  endfacet
  facet normal 0.000000 1.000000 0.000000
    outer loop
      vertex 0.309017 -6.500000 10.951057
      vertex 8.000000 -6.500000 13.000000
      vertex 1.000000 -6.500000 10.000000
    endloop
  endfacet
  facet normal 0.000000 1.000000 0.000000
    outer loop
      vertex 8.000000 -6.500000 3.000000
      vertex 1.000000 -6.500000 10.000000
      vertex 8.000000 -6.500000 13.000000
    endloop
  endfacet
  facet normal 0.000000 1.000000 0.000000
    outer loop
      vertex -0.809017 -6.500000 10.587785
      vertex -8.000000 -6.500000 13.000000
      vertex 0.309017 -6.500000 10.951057
    endloop
  endfacet
  facet normal 0.000000 1.000000 -0.000000
    outer loop
      vertex 1.000000 -6.500000 10.000000
      vertex 8.000000 -6.500000 3.000000
      vertex 0.309017 -6.500000 9.048943
    endloop
  endfacet
  facet normal 0.000000 -0.000000 1.000000
    outer loop
      vertex -8.000000 -6.500000 13.000000
      vertex -8.000000 -15.500000 13.000000
      vertex 8.000000 -15.500000 13.000000
    endloop
  endfacet
  facet normal 0.000000 0.000000 1.000000
    outer loop
      vertex 8.000000 -6.500000 13.000000
      vertex -8.000000 -6.500000 13.000000
      vertex 8.000000 -15.500000 13.000000
    endloop
  endfacet
  facet normal 0.000000 -1.000000 0.000000
    outer loop
      vertex -8.000000 -15.500000 13.000000
      vertex -8.000000 -15.500000 3.000000
      vertex 8.000000 -15.500000 3.000000
    endloop
  endfacet
  facet normal 0.000000 -1.000000 0.000000
    outer loop
      vertex -0.809017 -15.500000 9.412215
      vertex -8.000000 -15.500000 13.000000
      vertex 8.000000 -15.500000 3.000000
    endloop
  endfacet
  facet normal 0.000000 -1.000000 0.000000
    outer loop
      vertex 0.309017 -15.500000 9.048943
      vertex -0.809017 -15.500000 9.412215
      vertex 8.000000 -15.500000 3.000000
    endloop
  endfacet
  facet normal 0.000000 -1.000000 0.000000
    outer loop
      vertex -0.809017 -15.500000 10.587785
      vertex -8.000000 -15.500000 13.000000
      vertex -0.809017 -15.500000 9.412215
    endloop
  endfacet
  facet normal 0.000000 -1.000000 0.000000
    outer loop
      vertex 0.309017 -15.500000 10.951057
      vertex -8.000000 -15.500000 13.000000
      vertex -0.809017 -15.500000 10.587785
    endloop
  endfacet
  facet normal 0.000000 -1.000000 0.000000
    outer loop
      vertex 8.000000 -15.500000 13.000000
      vertex -8.000000 -15.500000 13.000000
      vertex 0.309017 -15.500000 10.951057
    endloop
  endfacet
  facet normal 0.000000 -1.000000 0.000000
    outer loop
      vertex 8.000000 -15.500000 13.000000
      vertex 1.000000 -15.500000 10.000000
      vertex 8.000000 -15.500000 3.000000
    endloop
  endfacet
  facet normal 0.000000 -1.000000 0.000000
    outer loop
      vertex 1.000000 -15.500000 10.000000
      vertex 0.309017 -15.500000 9.048943
      vertex 8.000000 -15.500000 3.000000
    endloop
  endfacet
  facet normal -0.000000 -1.000000 0.000000
    outer loop
      vertex 0.309017 -15.500000 10.951057
      vertex 1.000000 -15.500000 10.000000
      vertex 8.000000 -15.500000 13.000000
    endloop
  endfacet
  facet normal 0.000000 -0.000000 1.000000
    outer loop
      vertex -0.900000 -21.558846 3.000000
      vertex -8.000000 -25.000000 3.000000
      vertex 8.000000 -25.000000 3.000000
    endloop
  endfacet
  facet normal 0.000000 -0.000000 1.000000
    outer loop
      vertex 0.900000 -21.558846 3.000000
      vertex -0.900000 -21.558846 3.000000
      vertex 8.000000 -25.000000 3.000000
    endloop
  endfacet
  facet normal 0.000000 -0.000000 1.000000
    outer loop
      vertex -8.000000 -15.500000 3.000000
      vertex -8.000000 -25.000000 3.000000
      vertex -0.900000 -21.558846 3.000000
    endloop
  endfacet
  facet normal 0.000000 0.000000 1.000000
    outer loop
      vertex -8.000000 -15.500000 3.000000
      vertex -0.900000 -21.558846 3.000000
      vertex -1.800000 -20.000000 3.000000
    endloop
  endfacet
  facet normal 0.000000 0.000000 1.000000
    outer loop
      vertex 8.000000 -15.500000 3.000000
      vertex -8.000000 -15.500000 3.000000
      vertex -0.900000 -18.441154 3.000000
    endloop
  endfacet
  facet normal 0.000000 0.000000 1.000000
    outer loop
      vertex 8.000000 -15.500000 3.000000
      vertex 0.900000 -18.441154 3.000000
      vertex 8.000000 -25.000000 3.000000
    endloop
  endfacet
  facet normal 0.000000 0.000000 1.000000
    outer loop
      vertex 8.000000 -15.500000 3.000000
      vertex -0.900000 -18.441154 3.000000
      vertex 0.900000 -18.441154 3.000000
    endloop
  endfacet
  facet normal 0.000000 0.000000 1.000000
    outer loop
      vertex 0.900000 -18.441154 3.000000
      vertex 1.800000 -20.000000 3.000000
      vertex 8.000000 -25.000000 3.000000
    endloop
  endfacet
  facet normal 0.000000 0.000000 1.000000
    outer loop
      vertex -1.800000 -20.000000 3.000000
      vertex -0.900000 -18.441154 3.000000
      vertex -8.000000 -15.500000 3.000000
    endloop
  endfacet
  facet normal 0.000000 -0.000000 1.000000
    outer loop
      vertex 1.800000 -20.000000 3.000000
      vertex 0.900000 -21.558846 3.000000
      vertex 8.000000 -25.000000 3.000000
    endloop
  endfacet
  facet normal 1.000000 0.000000 -0.000000
    outer loop
      vertex 8.000000 -25.000000 3.000000
      vertex 8.000000 -25.000000 0.000000
      vertex 8.000000 25.000000 0.000000
    endloop
  endfacet
  facet normal 1.000000 0.000000 -0.000000
    outer loop
      vertex 8.000000 6.500000 3.000000
      vertex 8.000000 -6.500000 3.000000
      vertex 8.000000 25.000000 0.000000
    endloop
  endfacet
  facet normal 1.000000 0.000000 -0.000000
    outer loop
      vertex 8.000000 15.500000 3.000000
      vertex 8.000000 6.500000 3.000000
      vertex 8.000000 25.000000 0.000000
    endloop
  endfacet
  facet normal 1.000000 0.000000 0.000000
    outer loop
      vertex 8.000000 25.000000 3.000000
      vertex 8.000000 15.500000 3.000000
      vertex 8.000000 25.000000 0.000000
    endloop
  endfacet
  facet normal 1.000000 0.000000 0.000000
    outer loop
      vertex 8.000000 15.500000 13.000000
      vertex 8.000000 6.500000 3.000000
      vertex 8.000000 15.500000 3.000000
    endloop
  endfacet
  facet normal 1.000000 0.000000 -0.000000
    outer loop
      vertex 8.000000 -6.500000 3.000000
      vertex 8.000000 -15.500000 3.000000
      vertex 8.000000 25.000000 0.000000
    endloop
  endfacet
  facet normal 1.000000 0.000000 -0.000000
    outer loop
      vertex 8.000000 -15.500000 3.000000
      vertex 8.000000 -25.000000 3.000000
      vertex 8.000000 25.000000 0.000000
    endloop
  endfacet
  facet normal 1.000000 -0.000000 0.000000
    outer loop
      vertex 8.000000 -6.500000 3.000000
      vertex 8.000000 -6.500000 13.000000
      vertex 8.000000 -15.500000 3.000000
    endloop
  endfacet
  facet normal 1.000000 0.000000 -0.000000
    outer loop
      vertex 8.000000 -15.500000 13.000000
      vertex 8.000000 -15.500000 3.000000
      vertex 8.000000 -6.500000 13.000000
    endloop
  endfacet
  facet normal 1.000000 0.000000 -0.000000
    outer loop
      vertex 8.000000 6.500000 13.000000
      vertex 8.000000 6.500000 3.000000
      vertex 8.000000 15.500000 13.000000
    endloop
  endfacet
  facet normal 0.866025 0.500000 0.000000
    outer loop
      vertex -1.800000 -20.000000 3.000000
      vertex -0.900000 -21.558846 3.000000
      vertex -0.900000 -21.558846 0.000000
    endloop
  endfacet
  facet normal 0.866025 0.500000 0.000000
    outer loop
      vertex -1.800000 -20.000000 0.000000
      vertex -1.800000 -20.000000 3.000000
      vertex -0.900000 -21.558846 0.000000
    endloop
  endfacet
  facet normal 0.866025 -0.500000 0.000000
    outer loop
      vertex -0.900000 -18.441154 0.000000
      vertex -0.900000 -18.441154 3.000000
      vertex -1.800000 -20.000000 3.000000
    endloop
  endfacet
  facet normal 0.866025 -0.500000 0.000000
    outer loop
      vertex -1.800000 -20.000000 0.000000
      vertex -0.900000 -18.441154 0.000000
      vertex -1.800000 -20.000000 3.000000
    endloop
  endfacet
  facet normal 0.000000 -1.000000 0.000000
    outer loop
      vertex 0.900000 -18.441154 0.000000
      vertex 0.900000 -18.441154 3.000000
      vertex -0.900000 -18.441154 3.000000
    endloop
  endfacet
  facet normal -0.000000 -1.000000 -0.000000
    outer loop
      vertex -0.900000 -18.441154 0.000000
      vertex 0.900000 -18.441154 0.000000
      vertex -0.900000 -18.441154 3.000000
    endloop
  endfacet
  facet normal -0.866025 -0.500000 0.000000
    outer loop
      vertex 1.800000 -20.000000 3.000000
      vertex 0.900000 -18.441154 3.000000
      vertex 1.800000 -20.000000 0.000000
    endloop
  endfacet
  facet normal -0.866025 -0.500000 0.000000
    outer loop
      vertex 1.800000 -20.000000 0.000000
      vertex 0.900000 -18.441154 3.000000
      vertex 0.900000 -18.441154 0.000000
    endloop
  endfacet
  facet normal -0.866025 0.500000 0.000000
    outer loop
      vertex 1.800000 -20.000000 3.000000
      vertex 1.800000 -20.000000 0.000000
      vertex 0.900000 -21.558846 3.000000
    endloop
  endfacet
  facet normal -0.866025 0.500000 0.000000
    outer loop
      vertex 0.900000 -21.558846 3.000000
      vertex 1.800000 -20.000000 0.000000
      vertex 0.900000 -21.558846 0.000000
    endloop
  endfacet
  facet normal 0.000000 1.000000 0.000000
    outer loop
      vertex 0.900000 -21.558846 3.000000
      vertex 0.900000 -21.558846 0.000000
      vertex -0.900000 -21.558846 3.000000
    endloop
  endfacet
  facet normal 0.000000 1.000000 -0.000000
    outer loop
      vertex -0.900000 -21.558846 3.000000
      vertex 0.900000 -21.558846 0.000000
      vertex -0.900000 -21.558846 0.000000
    endloop
  endfacet
  facet normal 0.866025 -0.500000 0.000000
    outer loop
      vertex -0.900000 21.558846 0.000000
      vertex -0.900000 21.558846 3.000000
      vertex -1.800000 20.000000 3.000000
    endloop
  endfacet
  facet normal 0.866025 -0.500000 0.000000
    outer loop
      vertex -1.800000 20.000000 0.000000
      vertex -0.900000 21.558846 0.000000
      vertex -1.800000 20.000000 3.000000
    endloop
  endfacet
  facet normal 0.866025 0.500000 0.000000
    outer loop
      vertex -1.800000 20.000000 3.000000
      vertex -0.900000 18.441154 3.000000
      vertex -0.900000 18.441154 0.000000
    endloop
  endfacet
  facet normal 0.866025 0.500000 0.000000
    outer loop
      vertex -1.800000 20.000000 0.000000
      vertex -1.800000 20.000000 3.000000
      vertex -0.900000 18.441154 0.000000
    endloop
  endfacet
  facet normal 0.000000 -1.000000 0.000000
    outer loop
      vertex 0.900000 21.558846 0.000000
      vertex 0.900000 21.558846 3.000000
      vertex -0.900000 21.558846 3.000000
    endloop
  endfacet
  facet normal -0.000000 -1.000000 -0.000000
    outer loop
      vertex -0.900000 21.558846 0.000000
      vertex 0.900000 21.558846 0.000000
      vertex -0.900000 21.558846 3.000000
    endloop
  endfacet
  facet normal -0.866025 -0.500000 0.000000
    outer loop
      vertex 1.800000 20.000000 3.000000
      vertex 0.900000 21.558846 3.000000
      vertex 1.800000 20.000000 0.000000
    endloop
  endfacet
  facet normal -0.866025 -0.500000 0.000000
    outer loop
      vertex 1.800000 20.000000 0.000000
      vertex 0.900000 21.558846 3.000000
      vertex 0.900000 21.558846 0.000000
    endloop
  endfacet
  facet normal -0.866025 0.500000 0.000000
    outer loop
      vertex 1.800000 20.000000 3.000000
      vertex 1.800000 20.000000 0.000000
      vertex 0.900000 18.441154 3.000000
    endloop
  endfacet
  facet normal -0.866025 0.500000 0.000000
    outer loop
      vertex 0.900000 18.441154 3.000000
      vertex 1.800000 20.000000 0.000000
      vertex 0.900000 18.441154 0.000000
    endloop
  endfacet
  facet normal 0.000000 1.000000 0.000000
    outer loop
      vertex 0.900000 18.441154 3.000000
      vertex 0.900000 18.441154 0.000000
      vertex -0.900000 18.441154 3.000000
    endloop
  endfacet
  facet normal 0.000000 1.000000 -0.000000
    outer loop
      vertex -0.900000 18.441154 3.000000
      vertex 0.900000 18.441154 0.000000
      vertex -0.900000 18.441154 0.000000
    endloop
  endfacet
  facet normal 0.309018 0.000000 -0.951056
    outer loop
      vertex 0.309017 15.500000 10.951057
      vertex 0.309017 6.500000 10.951057
      vertex -0.809017 15.500000 10.587785
    endloop
  endfacet
  facet normal 0.309018 0.000000 -0.951056
    outer loop
      vertex -0.809017 15.500000 10.587785
      vertex 0.309017 6.500000 10.951057
      vertex -0.809017 6.500000 10.587785
    endloop
  endfacet
  facet normal 1.000000 0.000000 0.000000
    outer loop
      vertex -0.809017 15.500000 9.412215
      vertex -0.809017 15.500000 10.587785
      vertex -0.809017 6.500000 10.587785
    endloop
  endfacet
  facet normal 1.000000 0.000000 0.000000
    outer loop
      vertex -0.809017 6.500000 9.412215
      vertex -0.809017 15.500000 9.412215
      vertex -0.809017 6.500000 10.587785
    endloop
  endfacet
  facet normal -0.809017 0.000000 -0.587785
    outer loop
      vertex 1.000000 15.500000 10.000000
      vertex 1.000000 6.500000 10.000000
      vertex 0.309017 15.500000 10.951057
    endloop
  endfacet
  facet normal -0.809017 0.000000 -0.587785
    outer loop
      vertex 0.309017 15.500000 10.951057
      vertex 1.000000 6.500000 10.000000
      vertex 0.309017 6.500000 10.951057
    endloop
  endfacet
  facet normal -0.809017 0.000000 0.587785
    outer loop
      vertex 1.000000 15.500000 10.000000
      vertex 0.309017 15.500000 9.048943
      vertex 1.000000 6.500000 10.000000
    endloop
  endfacet
  facet normal -0.809017 0.000000 0.587785
    outer loop
      vertex 1.000000 6.500000 10.000000
      vertex 0.309017 15.500000 9.048943
      vertex 0.309017 6.500000 9.048943
    endloop
  endfacet
  facet normal 0.309018 0.000000 0.951056
    outer loop
      vertex 0.309017 6.500000 9.048943
      vertex 0.309017 15.500000 9.048943
      vertex -0.809017 15.500000 9.412215
    endloop
  endfacet
  facet normal 0.309018 0.000000 0.951056
    outer loop
      vertex -0.809017 6.500000 9.412215
      vertex 0.309017 6.500000 9.048943
      vertex -0.809017 15.500000 9.412215
    endloop
  endfacet
  facet normal 1.000000 0.000000 0.000000
    outer loop
      vertex -0.809017 -6.500000 9.412215
      vertex -0.809017 -6.500000 10.587785
      vertex -0.809017 -15.500000 10.587785
    endloop
  endfacet
  facet normal 1.000000 0.000000 0.000000
    outer loop
      vertex -0.809017 -15.500000 9.412215
      vertex -0.809017 -6.500000 9.412215
      vertex -0.809017 -15.500000 10.587785
    endloop
  endfacet
  facet normal 0.309018 0.000000 -0.951056
    outer loop
      vertex 0.309017 -6.500000 10.951057
      vertex 0.309017 -15.500000 10.951057
      vertex -0.809017 -6.500000 10.587785
    endloop
  endfacet
  facet normal 0.309018 0.000000 -0.951056
    outer loop
      vertex -0.809017 -6.500000 10.587785
      vertex 0.309017 -15.500000 10.951057
      vertex -0.809017 -15.500000 10.587785
    endloop
  endfacet
  facet normal -0.809017 0.000000 -0.587785
    outer loop
      vertex 1.000000 -6.500000 10.000000
      vertex 1.000000 -15.500000 10.000000
      vertex 0.309017 -6.500000 10.951057
    endloop
  endfacet
  facet normal -0.809017 0.000000 -0.587785
    outer loop
      vertex 0.309017 -6.500000 10.951057
      vertex 1.000000 -15.500000 10.000000
      vertex 0.309017 -15.500000 10.951057
    endloop
  endfacet
  facet normal -0.809017 0.000000 0.587785
    outer loop
      vertex 1.000000 -6.500000 10.000000
      vertex 0.309017 -6.500000 9.048943
      vertex 1.000000 -15.500000 10.000000
    endloop
  endfacet
  facet normal -0.809017 0.000000 0.587785
    outer loop
      vertex 1.000000 -15.500000 10.000000
      vertex 0.309017 -6.500000 9.048943
      vertex 0.309017 -15.500000 9.048943
    endloop
  endfacet
  facet normal 0.309018 0.000000 0.951056
    outer loop
      vertex 0.309017 -15.500000 9.048943
      vertex 0.309017 -6.500000 9.048943
      vertex -0.809017 -6.500000 9.412215
    endloop
  endfacet
  facet normal 0.309018 0.000000 0.951056
    outer loop
      vertex -0.809017 -15.500000 9.412215
      vertex 0.309017 -15.500000 9.048943
      vertex -0.809017 -6.500000 9.412215
    endloop
  endfacet
endsolid OpenSCAD_Model
