solid OpenSCAD_Model
  facet normal -0.980738 -0.195327 -0.000000
    outer loop
      vertex -26.000000 5.000000 0.000000
      vertex -25.619000 3.087000 0.000000
      vertex -26.000000 5.000000 3.000000
    endloop
  endfacet
  facet normal -0.980738 -0.195327 0.000000
    outer loop
      vertex -26.000000 5.000000 3.000000
      vertex -25.619000 3.087000 0.000000
      vertex -25.619000 3.087000 3.000000
    endloop
  endfacet
  facet normal -0.000000 0.000000 -1.000000
    outer loop
      vertex -26.000000 5.000000 0.000000
      vertex -25.619000 6.913000 0.000000
      vertex -25.619000 3.087000 0.000000
    endloop
  endfacet
  facet normal 0.000000 -0.000000 -1.000000
    outer loop
      vertex -25.619000 3.087000 0.000000
      vertex -25.619000 6.913000 0.000000
      vertex -24.536000 8.536000 0.000000
    endloop
  endfacet
  facet normal 0.000000 0.000000 -1.000000
    outer loop
      vertex -25.619000 3.087000 0.000000
      vertex -24.536000 8.536000 0.000000
      vertex -23.313000 9.352000 0.000000
    endloop
  endfacet
  facet normal 0.000000 -0.000000 -1.000000
    outer loop
      vertex -23.313000 9.352000 0.000000
      vertex -23.347000 9.415000 0.000000
      vertex -0.217000 21.713000 0.000000
    endloop
  endfacet
  facet normal -0.000000 0.000000 -1.000000
    outer loop
      vertex -23.313000 9.352000 0.000000
      vertex -0.217000 21.713000 0.000000
      vertex -25.619000 3.087000 0.000000
    endloop
  endfacet
  facet normal 0.000000 0.000000 -1.000000
    outer loop
      vertex -0.217000 21.713000 0.000000
      vertex 0.356000 22.162000 0.000000
      vertex 1.131000 22.430000 0.000000
    endloop
  endfacet
  facet normal -0.000000 0.000000 -1.000000
    outer loop
      vertex -0.217000 21.713000 0.000000
      vertex 1.131000 22.430000 0.000000
      vertex -25.619000 3.087000 0.000000
    endloop
  endfacet
  facet normal -0.000000 0.000000 -1.000000
    outer loop
      vertex 1.131000 22.430000 0.000000
      vertex 1.375000 22.560000 0.000000
      vertex -25.619000 3.087000 0.000000
    endloop
  endfacet
  facet normal 0.000000 0.000000 -1.000000
    outer loop
      vertex -25.619000 3.087000 0.000000
      vertex 1.375000 22.560000 0.000000
      vertex 1.395000 22.522000 0.000000
    endloop
  endfacet
  facet normal 0.000000 0.000000 -1.000000
    outer loop
      vertex -25.619000 3.087000 0.000000
      vertex 1.395000 22.522000 0.000000
      vertex 2.222000 22.808000 0.000000
    endloop
  endfacet
  facet normal 0.000000 0.000000 -1.000000
    outer loop
      vertex -25.619000 3.087000 0.000000
      vertex 2.222000 22.808000 0.000000
      vertex 4.198000 22.814000 0.000000
    endloop
  endfacet
  facet normal 0.000000 0.000000 -1.000000
    outer loop
      vertex -25.619000 3.087000 0.000000
      vertex 4.198000 22.814000 0.000000
      vertex 6.068000 22.178000 0.000000
    endloop
  endfacet
  facet normal 0.000000 0.000000 -1.000000
    outer loop
      vertex -25.619000 3.087000 0.000000
      vertex 6.068000 22.178000 0.000000
      vertex 6.461000 21.874000 0.000000
    endloop
  endfacet
  facet normal -0.000000 0.000000 -1.000000
    outer loop
      vertex 6.461000 21.874000 0.000000
      vertex 6.494000 21.925000 0.000000
      vertex 23.268000 11.032000 0.000000
    endloop
  endfacet
  facet normal 0.000000 0.000000 -1.000000
    outer loop
      vertex -0.041000 11.861000 0.000000
      vertex 16.116233 6.957263 0.000000
      vertex 10.524000 5.000000 0.000000
    endloop
  endfacet
  facet normal -0.000000 0.000000 -1.000000
    outer loop
      vertex 20.482147 9.970835 0.000000
      vertex 23.282000 11.023000 0.000000
      vertex 24.735000 9.685000 0.000000
    endloop
  endfacet
  facet normal 0.000000 0.000000 -1.000000
    outer loop
      vertex 23.541824 7.858893 0.000000
      vertex 24.735000 9.685000 0.000000
      vertex 25.675000 7.948000 0.000000
    endloop
  endfacet
  facet normal 0.000000 0.000000 -1.000000
    outer loop
      vertex 23.541824 7.858893 0.000000
      vertex 26.000000 6.000000 0.000000
      vertex 24.000000 6.000000 0.000000
    endloop
  endfacet
  facet normal -0.000000 0.000000 -1.000000
    outer loop
      vertex 22.272259 2.708065 0.000000
      vertex 25.675000 4.052000 0.000000
      vertex 24.735000 2.315000 0.000000
    endloop
  endfacet
  facet normal -0.000000 0.000000 -1.000000
    outer loop
      vertex 20.482147 2.029165 0.000000
      vertex 24.735000 2.315000 0.000000
      vertex 23.282000 0.977000 0.000000
    endloop
  endfacet
  facet normal 0.000000 0.000000 -1.000000
    outer loop
      vertex -25.619000 3.087000 0.000000
      vertex 23.282000 0.977000 0.000000
      vertex 21.473000 0.184000 0.000000
    endloop
  endfacet
  facet normal 0.000000 0.000000 -1.000000
    outer loop
      vertex -25.619000 3.087000 0.000000
      vertex 21.473000 0.184000 0.000000
      vertex 20.000000 0.061000 0.000000
    endloop
  endfacet
  facet normal 0.000000 0.000000 -1.000000
    outer loop
      vertex -25.619000 3.087000 0.000000
      vertex 20.000000 0.061000 0.000000
      vertex 20.000000 0.000000 0.000000
    endloop
  endfacet
  facet normal 0.000000 0.000000 -1.000000
    outer loop
      vertex -25.619000 3.087000 0.000000
      vertex 20.000000 0.000000 0.000000
      vertex -21.000000 0.000000 0.000000
    endloop
  endfacet
  facet normal 0.000000 0.000000 -1.000000
    outer loop
      vertex -25.619000 3.087000 0.000000
      vertex -21.000000 0.000000 0.000000
      vertex -22.913000 0.381000 0.000000
    endloop
  endfacet
  facet normal 0.000000 0.000000 -1.000000
    outer loop
      vertex -25.619000 3.087000 0.000000
      vertex -22.913000 0.381000 0.000000
      vertex -24.536000 1.464000 0.000000
    endloop
  endfacet
  facet normal 0.000000 0.000000 -1.000000
    outer loop
      vertex -16.000000 5.000000 0.000000
      vertex -20.845000 4.524000 0.000000
      vertex -20.500000 5.000000 0.000000
    endloop
  endfacet
  facet normal 0.000000 0.000000 -1.000000
    outer loop
      vertex 6.461000 21.874000 0.000000
      vertex -21.405000 5.294000 0.000000
      vertex -25.619000 3.087000 0.000000
    endloop
  endfacet
  facet normal 0.000000 0.000000 -1.000000
    outer loop
      vertex 24.000000 6.000000 0.000000
      vertex 26.000000 6.000000 0.000000
      vertex 25.675000 4.052000 0.000000
    endloop
  endfacet
  facet normal 0.000000 0.000000 -1.000000
    outer loop
      vertex -21.405000 5.294000 0.000000
      vertex -21.405000 4.706000 0.000000
      vertex -25.619000 3.087000 0.000000
    endloop
  endfacet
  facet normal 0.000000 0.000000 -1.000000
    outer loop
      vertex -21.405000 4.706000 0.000000
      vertex -20.845000 4.524000 0.000000
      vertex -25.619000 3.087000 0.000000
    endloop
  endfacet
  facet normal 0.000000 0.000000 -1.000000
    outer loop
      vertex -16.000000 5.000000 0.000000
      vertex -20.500000 5.000000 0.000000
      vertex -20.845000 5.476000 0.000000
    endloop
  endfacet
  facet normal 0.000000 0.000000 -1.000000
    outer loop
      vertex 6.461000 21.874000 0.000000
      vertex -20.845000 5.476000 0.000000
      vertex -21.405000 5.294000 0.000000
    endloop
  endfacet
  facet normal -0.000000 0.000000 -1.000000
    outer loop
      vertex 3.047000 17.360000 0.000000
      vertex 6.461000 21.874000 0.000000
      vertex 3.616000 17.208000 0.000000
    endloop
  endfacet
  facet normal 0.000000 0.000000 -1.000000
    outer loop
      vertex 6.461000 21.874000 0.000000
      vertex -16.648000 7.314000 0.000000
      vertex -20.845000 5.476000 0.000000
    endloop
  endfacet
  facet normal 0.000000 0.000000 -1.000000
    outer loop
      vertex 16.116233 5.042737 0.000000
      vertex 10.524000 5.000000 0.000000
      vertex 16.116233 6.957263 0.000000
    endloop
  endfacet
  facet normal 0.000000 0.000000 -1.000000
    outer loop
      vertex -16.648000 7.314000 0.000000
      vertex -16.381000 6.913000 0.000000
      vertex -20.845000 5.476000 0.000000
    endloop
  endfacet
  facet normal 0.000000 0.000000 -1.000000
    outer loop
      vertex 10.524000 5.000000 0.000000
      vertex -25.619000 3.087000 0.000000
      vertex -16.000000 5.000000 0.000000
    endloop
  endfacet
  facet normal -0.000000 0.000000 -1.000000
    outer loop
      vertex -20.845000 4.524000 0.000000
      vertex -16.000000 5.000000 0.000000
      vertex -25.619000 3.087000 0.000000
    endloop
  endfacet
  facet normal 0.000000 0.000000 -1.000000
    outer loop
      vertex -0.041000 11.861000 0.000000
      vertex 23.268000 11.032000 0.000000
      vertex 23.267000 11.030000 0.000000
    endloop
  endfacet
  facet normal 0.000000 0.000000 -1.000000
    outer loop
      vertex 3.097000 16.409000 0.000000
      vertex 23.268000 11.032000 0.000000
      vertex -0.041000 11.861000 0.000000
    endloop
  endfacet
  facet normal 0.000000 0.000000 -1.000000
    outer loop
      vertex 3.097000 16.409000 0.000000
      vertex -0.445000 12.147000 0.000000
      vertex 2.727000 16.867000 0.000000
    endloop
  endfacet
  facet normal 0.000000 0.000000 -1.000000
    outer loop
      vertex 3.047000 17.360000 0.000000
      vertex -0.445000 12.147000 0.000000
      vertex -1.787000 13.597000 0.000000
    endloop
  endfacet
  facet normal 0.000000 0.000000 -1.000000
    outer loop
      vertex 6.461000 21.874000 0.000000
      vertex -1.787000 13.597000 0.000000
      vertex -2.366000 14.907000 0.000000
    endloop
  endfacet
  facet normal 0.000000 0.000000 -1.000000
    outer loop
      vertex 6.461000 21.874000 0.000000
      vertex -2.366000 14.907000 0.000000
      vertex -16.648000 7.314000 0.000000
    endloop
  endfacet
  facet normal 0.000000 -0.000000 -1.000000
    outer loop
      vertex 2.727000 16.867000 0.000000
      vertex -0.445000 12.147000 0.000000
      vertex 3.047000 17.360000 0.000000
    endloop
  endfacet
  facet normal 0.000000 0.000000 -1.000000
    outer loop
      vertex 6.461000 21.874000 0.000000
      vertex 3.047000 17.360000 0.000000
      vertex -1.787000 13.597000 0.000000
    endloop
  endfacet
  facet normal 0.000000 0.000000 -1.000000
    outer loop
      vertex 3.097000 16.409000 0.000000
      vertex -0.008000 11.912000 0.000000
      vertex -0.445000 12.147000 0.000000
    endloop
  endfacet
  facet normal 0.000000 0.000000 -1.000000
    outer loop
      vertex 3.097000 16.409000 0.000000
      vertex -0.041000 11.861000 0.000000
      vertex -0.008000 11.912000 0.000000
    endloop
  endfacet
  facet normal 0.000000 0.000000 -1.000000
    outer loop
      vertex 3.646000 16.620000 0.000000
      vertex 23.268000 11.032000 0.000000
      vertex 3.097000 16.409000 0.000000
    endloop
  endfacet
  facet normal 0.000000 0.000000 -1.000000
    outer loop
      vertex 6.461000 21.874000 0.000000
      vertex 23.268000 11.032000 0.000000
      vertex 3.646000 16.620000 0.000000
    endloop
  endfacet
  facet normal 0.000000 0.000000 -1.000000
    outer loop
      vertex 6.461000 21.874000 0.000000
      vertex 3.646000 16.620000 0.000000
      vertex 3.616000 17.208000 0.000000
    endloop
  endfacet
  facet normal 0.000000 0.000000 -1.000000
    outer loop
      vertex 17.005957 3.347509 0.000000
      vertex -25.619000 3.087000 0.000000
      vertex 10.524000 5.000000 0.000000
    endloop
  endfacet
  facet normal 0.000000 0.000000 -1.000000
    outer loop
      vertex 18.581580 2.259935 0.000000
      vertex -25.619000 3.087000 0.000000
      vertex 17.005957 3.347509 0.000000
    endloop
  endfacet
  facet normal 0.000000 0.000000 -1.000000
    outer loop
      vertex 22.272259 2.708065 0.000000
      vertex 24.735000 2.315000 0.000000
      vertex 20.482147 2.029165 0.000000
    endloop
  endfacet
  facet normal 0.000000 0.000000 -1.000000
    outer loop
      vertex -25.619000 3.087000 0.000000
      vertex 18.581580 2.259935 0.000000
      vertex 23.282000 0.977000 0.000000
    endloop
  endfacet
  facet normal 0.000000 0.000000 -1.000000
    outer loop
      vertex 18.581580 2.259935 0.000000
      vertex 20.482147 2.029165 0.000000
      vertex 23.282000 0.977000 0.000000
    endloop
  endfacet
  facet normal 0.000000 0.000000 -1.000000
    outer loop
      vertex 24.000000 6.000000 0.000000
      vertex 25.675000 4.052000 0.000000
      vertex 23.541824 4.141107 0.000000
    endloop
  endfacet
  facet normal 0.000000 0.000000 -1.000000
    outer loop
      vertex 23.541824 4.141107 0.000000
      vertex 25.675000 4.052000 0.000000
      vertex 22.272259 2.708065 0.000000
    endloop
  endfacet
  facet normal 0.000000 0.000000 -1.000000
    outer loop
      vertex -0.041000 11.861000 0.000000
      vertex 23.282000 11.023000 0.000000
      vertex 18.581580 9.740065 0.000000
    endloop
  endfacet
  facet normal 0.000000 0.000000 -1.000000
    outer loop
      vertex -0.041000 11.861000 0.000000
      vertex 23.267000 11.030000 0.000000
      vertex 23.282000 11.023000 0.000000
    endloop
  endfacet
  facet normal -0.000000 0.000000 -1.000000
    outer loop
      vertex 22.272259 9.291935 0.000000
      vertex 24.735000 9.685000 0.000000
      vertex 23.541824 7.858893 0.000000
    endloop
  endfacet
  facet normal 0.000000 0.000000 -1.000000
    outer loop
      vertex -0.041000 11.861000 0.000000
      vertex 18.581580 9.740065 0.000000
      vertex 17.005957 8.652491 0.000000
    endloop
  endfacet
  facet normal 0.000000 0.000000 -1.000000
    outer loop
      vertex 18.581580 9.740065 0.000000
      vertex 23.282000 11.023000 0.000000
      vertex 20.482147 9.970835 0.000000
    endloop
  endfacet
  facet normal 0.000000 0.000000 -1.000000
    outer loop
      vertex -0.041000 11.861000 0.000000
      vertex 17.005957 8.652491 0.000000
      vertex 16.116233 6.957263 0.000000
    endloop
  endfacet
  facet normal 0.000000 0.000000 -1.000000
    outer loop
      vertex 17.005957 3.347509 0.000000
      vertex 10.524000 5.000000 0.000000
      vertex 16.116233 5.042737 0.000000
    endloop
  endfacet
  facet normal 0.000000 0.000000 -1.000000
    outer loop
      vertex 20.482147 9.970835 0.000000
      vertex 24.735000 9.685000 0.000000
      vertex 22.272259 9.291935 0.000000
    endloop
  endfacet
  facet normal 0.000000 0.000000 -1.000000
    outer loop
      vertex -16.000000 5.000000 0.000000
      vertex -20.845000 5.476000 0.000000
      vertex -16.381000 6.913000 0.000000
    endloop
  endfacet
  facet normal -0.000000 0.000000 -1.000000
    outer loop
      vertex 23.541824 7.858893 0.000000
      vertex 25.675000 7.948000 0.000000
      vertex 26.000000 6.000000 0.000000
    endloop
  endfacet
  facet normal -0.980738 0.195327 0.000000
    outer loop
      vertex -26.000000 5.000000 0.000000
      vertex -26.000000 5.000000 3.000000
      vertex -25.619000 6.913000 0.000000
    endloop
  endfacet
  facet normal -0.980738 0.195327 0.000000
    outer loop
      vertex -25.619000 6.913000 0.000000
      vertex -26.000000 5.000000 3.000000
      vertex -25.619000 6.913000 3.000000
    endloop
  endfacet
  facet normal 0.000000 0.000000 1.000000
    outer loop
      vertex -25.619000 6.913000 3.000000
      vertex -26.000000 5.000000 3.000000
      vertex -25.619000 3.087000 3.000000
    endloop
  endfacet
  facet normal 0.000000 0.000000 1.000000
    outer loop
      vertex -22.913000 0.381000 3.000000
      vertex -25.619000 6.913000 3.000000
      vertex -24.536000 1.464000 3.000000
    endloop
  endfacet
  facet normal 0.000000 0.000000 1.000000
    outer loop
      vertex -24.536000 1.464000 3.000000
      vertex -25.619000 6.913000 3.000000
      vertex -25.619000 3.087000 3.000000
    endloop
  endfacet
  facet normal 0.000000 0.000000 1.000000
    outer loop
      vertex -21.000000 0.000000 3.000000
      vertex -25.619000 6.913000 3.000000
      vertex -22.913000 0.381000 3.000000
    endloop
  endfacet
  facet normal -0.000000 -0.000000 1.000000
    outer loop
      vertex -21.405000 4.706000 3.000000
      vertex -25.619000 6.913000 3.000000
      vertex -21.000000 0.000000 3.000000
    endloop
  endfacet
  facet normal -0.000000 -0.000000 1.000000
    outer loop
      vertex 17.250000 1.236860 3.000000
      vertex -16.000000 5.000000 3.000000
      vertex 20.000000 0.000000 3.000000
    endloop
  endfacet
  facet normal 0.000000 0.000000 1.000000
    outer loop
      vertex -0.041000 11.861000 3.000000
      vertex 15.786756 9.535332 3.000000
      vertex 17.250000 10.763140 3.000000
    endloop
  endfacet
  facet normal 0.000000 0.000000 1.000000
    outer loop
      vertex 10.524000 5.000000 3.000000
      vertex 17.250000 1.236860 3.000000
      vertex 15.786756 2.464668 3.000000
    endloop
  endfacet
  facet normal 0.000000 0.000000 1.000000
    outer loop
      vertex -0.041000 11.861000 3.000000
      vertex 10.524000 5.000000 3.000000
      vertex 14.500000 6.000000 3.000000
    endloop
  endfacet
  facet normal 0.000000 -0.000000 1.000000
    outer loop
      vertex 25.168309 4.118889 3.000000
      vertex 24.213244 2.464668 3.000000
      vertex 25.675000 4.052000 3.000000
    endloop
  endfacet
  facet normal 0.000000 -0.000000 1.000000
    outer loop
      vertex 6.494000 21.925000 3.000000
      vertex 6.461000 21.874000 3.000000
      vertex 23.268000 11.032000 3.000000
    endloop
  endfacet
  facet normal 0.000000 0.000000 1.000000
    outer loop
      vertex -0.217000 21.713000 3.000000
      vertex -23.313000 9.352000 3.000000
      vertex -25.619000 6.913000 3.000000
    endloop
  endfacet
  facet normal 0.000000 -0.000000 1.000000
    outer loop
      vertex 4.198000 22.814000 3.000000
      vertex -25.619000 6.913000 3.000000
      vertex 6.068000 22.178000 3.000000
    endloop
  endfacet
  facet normal 0.000000 -0.000000 1.000000
    outer loop
      vertex 2.222000 22.808000 3.000000
      vertex -25.619000 6.913000 3.000000
      vertex 4.198000 22.814000 3.000000
    endloop
  endfacet
  facet normal 0.000000 -0.000000 1.000000
    outer loop
      vertex 1.395000 22.522000 3.000000
      vertex -25.619000 6.913000 3.000000
      vertex 2.222000 22.808000 3.000000
    endloop
  endfacet
  facet normal 0.000000 -0.000000 1.000000
    outer loop
      vertex 1.375000 22.560000 3.000000
      vertex -25.619000 6.913000 3.000000
      vertex 1.395000 22.522000 3.000000
    endloop
  endfacet
  facet normal 0.000000 -0.000000 1.000000
    outer loop
      vertex 1.131000 22.430000 3.000000
      vertex -25.619000 6.913000 3.000000
      vertex 1.375000 22.560000 3.000000
    endloop
  endfacet
  facet normal 0.000000 -0.000000 1.000000
    outer loop
      vertex -0.217000 21.713000 3.000000
      vertex -25.619000 6.913000 3.000000
      vertex 1.131000 22.430000 3.000000
    endloop
  endfacet
  facet normal 0.000000 0.000000 1.000000
    outer loop
      vertex -23.313000 9.352000 3.000000
      vertex -24.536000 8.536000 3.000000
      vertex -25.619000 6.913000 3.000000
    endloop
  endfacet
  facet normal 0.000000 -0.000000 1.000000
    outer loop
      vertex 0.356000 22.162000 3.000000
      vertex -0.217000 21.713000 3.000000
      vertex 1.131000 22.430000 3.000000
    endloop
  endfacet
  facet normal 0.000000 0.000000 1.000000
    outer loop
      vertex -20.845000 5.476000 3.000000
      vertex -20.500000 5.000000 3.000000
      vertex 20.000000 0.000000 3.000000
    endloop
  endfacet
  facet normal -0.000000 0.000000 1.000000
    outer loop
      vertex -20.845000 4.524000 3.000000
      vertex -21.405000 4.706000 3.000000
      vertex -21.000000 0.000000 3.000000
    endloop
  endfacet
  facet normal -0.000000 0.000000 1.000000
    outer loop
      vertex -21.405000 5.294000 3.000000
      vertex -25.619000 6.913000 3.000000
      vertex -21.405000 4.706000 3.000000
    endloop
  endfacet
  facet normal -0.000000 0.000000 1.000000
    outer loop
      vertex -20.845000 5.476000 3.000000
      vertex -25.619000 6.913000 3.000000
      vertex -21.405000 5.294000 3.000000
    endloop
  endfacet
  facet normal 0.000000 -0.000000 1.000000
    outer loop
      vertex -20.500000 5.000000 3.000000
      vertex -20.845000 4.524000 3.000000
      vertex 20.000000 0.000000 3.000000
    endloop
  endfacet
  facet normal 0.000000 0.000000 1.000000
    outer loop
      vertex -16.000000 5.000000 3.000000
      vertex -25.619000 6.913000 3.000000
      vertex -20.845000 5.476000 3.000000
    endloop
  endfacet
  facet normal -0.000000 0.000000 1.000000
    outer loop
      vertex 20.000000 0.000000 3.000000
      vertex -20.845000 4.524000 3.000000
      vertex -21.000000 0.000000 3.000000
    endloop
  endfacet
  facet normal 0.000000 0.000000 1.000000
    outer loop
      vertex 10.524000 5.000000 3.000000
      vertex 15.786756 2.464668 3.000000
      vertex 14.831691 4.118889 3.000000
    endloop
  endfacet
  facet normal 0.000000 -0.000000 1.000000
    outer loop
      vertex 10.524000 5.000000 3.000000
      vertex -16.000000 5.000000 3.000000
      vertex 17.250000 1.236860 3.000000
    endloop
  endfacet
  facet normal 0.000000 0.000000 1.000000
    outer loop
      vertex 6.461000 21.874000 3.000000
      vertex -25.619000 6.913000 3.000000
      vertex -2.366000 14.907000 3.000000
    endloop
  endfacet
  facet normal 0.000000 0.000000 1.000000
    outer loop
      vertex 19.044935 11.416443 3.000000
      vertex -2.366000 14.907000 3.000000
      vertex -1.787000 13.597000 3.000000
    endloop
  endfacet
  facet normal 0.000000 0.000000 1.000000
    outer loop
      vertex 24.213244 9.535332 3.000000
      vertex 25.168309 7.881111 3.000000
      vertex 25.675000 7.948000 3.000000
    endloop
  endfacet
  facet normal 0.000000 0.000000 1.000000
    outer loop
      vertex 19.044935 11.416443 3.000000
      vertex 20.955065 11.416443 3.000000
      vertex -2.366000 14.907000 3.000000
    endloop
  endfacet
  facet normal 0.000000 0.000000 1.000000
    outer loop
      vertex -0.041000 11.861000 3.000000
      vertex 14.831691 7.881111 3.000000
      vertex 15.786756 9.535332 3.000000
    endloop
  endfacet
  facet normal 0.000000 0.000000 1.000000
    outer loop
      vertex 17.250000 10.763140 3.000000
      vertex 19.044935 11.416443 3.000000
      vertex -0.445000 12.147000 3.000000
    endloop
  endfacet
  facet normal 0.000000 0.000000 1.000000
    outer loop
      vertex 20.000000 0.000000 3.000000
      vertex -16.000000 5.000000 3.000000
      vertex -20.845000 5.476000 3.000000
    endloop
  endfacet
  facet normal 0.000000 0.000000 1.000000
    outer loop
      vertex 3.047000 17.360000 3.000000
      vertex -2.366000 14.907000 3.000000
      vertex 2.727000 16.867000 3.000000
    endloop
  endfacet
  facet normal 0.000000 -0.000000 1.000000
    outer loop
      vertex 3.646000 16.620000 3.000000
      vertex 3.097000 16.409000 3.000000
      vertex 23.268000 11.032000 3.000000
    endloop
  endfacet
  facet normal 0.000000 0.000000 1.000000
    outer loop
      vertex 6.461000 21.874000 3.000000
      vertex -2.366000 14.907000 3.000000
      vertex 3.047000 17.360000 3.000000
    endloop
  endfacet
  facet normal 0.000000 -0.000000 1.000000
    outer loop
      vertex 6.461000 21.874000 3.000000
      vertex 3.616000 17.208000 3.000000
      vertex 23.268000 11.032000 3.000000
    endloop
  endfacet
  facet normal 0.000000 0.000000 1.000000
    outer loop
      vertex 3.616000 17.208000 3.000000
      vertex 3.646000 16.620000 3.000000
      vertex 23.268000 11.032000 3.000000
    endloop
  endfacet
  facet normal 0.000000 -0.000000 1.000000
    outer loop
      vertex 25.500000 6.000000 3.000000
      vertex 25.168309 4.118889 3.000000
      vertex 26.000000 6.000000 3.000000
    endloop
  endfacet
  facet normal 0.000000 -0.000000 1.000000
    outer loop
      vertex 2.727000 16.867000 3.000000
      vertex -2.366000 14.907000 3.000000
      vertex 3.097000 16.409000 3.000000
    endloop
  endfacet
  facet normal 0.000000 -0.000000 1.000000
    outer loop
      vertex 22.750000 1.236860 3.000000
      vertex 20.955065 0.583557 3.000000
      vertex 23.282000 0.977000 3.000000
    endloop
  endfacet
  facet normal 0.000000 0.000000 1.000000
    outer loop
      vertex 17.250000 1.236860 3.000000
      vertex 20.000000 0.000000 3.000000
      vertex 20.000000 0.061000 3.000000
    endloop
  endfacet
  facet normal 0.000000 0.000000 1.000000
    outer loop
      vertex 17.250000 10.763140 3.000000
      vertex -0.008000 11.912000 3.000000
      vertex -0.041000 11.861000 3.000000
    endloop
  endfacet
  facet normal 0.000000 0.000000 1.000000
    outer loop
      vertex 22.750000 10.763140 3.000000
      vertex 24.213244 9.535332 3.000000
      vertex 24.735000 9.685000 3.000000
    endloop
  endfacet
  facet normal 0.000000 0.000000 1.000000
    outer loop
      vertex 25.168309 7.881111 3.000000
      vertex 25.500000 6.000000 3.000000
      vertex 26.000000 6.000000 3.000000
    endloop
  endfacet
  facet normal 0.000000 0.000000 1.000000
    outer loop
      vertex 17.250000 1.236860 3.000000
      vertex 20.000000 0.061000 3.000000
      vertex 19.044935 0.583557 3.000000
    endloop
  endfacet
  facet normal 0.000000 -0.000000 1.000000
    outer loop
      vertex 24.213244 2.464668 3.000000
      vertex 22.750000 1.236860 3.000000
      vertex 24.735000 2.315000 3.000000
    endloop
  endfacet
  facet normal 0.000000 0.000000 1.000000
    outer loop
      vertex -0.041000 11.861000 3.000000
      vertex 14.500000 6.000000 3.000000
      vertex 14.831691 7.881111 3.000000
    endloop
  endfacet
  facet normal 0.000000 0.000000 1.000000
    outer loop
      vertex 20.955065 11.416443 3.000000
      vertex 23.267000 11.030000 3.000000
      vertex 23.268000 11.032000 3.000000
    endloop
  endfacet
  facet normal 0.000000 0.000000 1.000000
    outer loop
      vertex -1.787000 13.597000 3.000000
      vertex -0.445000 12.147000 3.000000
      vertex 19.044935 11.416443 3.000000
    endloop
  endfacet
  facet normal 0.000000 0.000000 1.000000
    outer loop
      vertex 3.097000 16.409000 3.000000
      vertex 20.955065 11.416443 3.000000
      vertex 23.268000 11.032000 3.000000
    endloop
  endfacet
  facet normal 0.000000 -0.000000 1.000000
    outer loop
      vertex 3.097000 16.409000 3.000000
      vertex -2.366000 14.907000 3.000000
      vertex 20.955065 11.416443 3.000000
    endloop
  endfacet
  facet normal 0.000000 -0.000000 1.000000
    outer loop
      vertex 23.282000 11.023000 3.000000
      vertex 22.750000 10.763140 3.000000
      vertex 24.735000 9.685000 3.000000
    endloop
  endfacet
  facet normal 0.000000 -0.000000 1.000000
    outer loop
      vertex 24.735000 9.685000 3.000000
      vertex 24.213244 9.535332 3.000000
      vertex 25.675000 7.948000 3.000000
    endloop
  endfacet
  facet normal 0.000000 -0.000000 1.000000
    outer loop
      vertex 25.675000 7.948000 3.000000
      vertex 25.168309 7.881111 3.000000
      vertex 26.000000 6.000000 3.000000
    endloop
  endfacet
  facet normal -0.000000 0.000000 1.000000
    outer loop
      vertex -16.381000 6.913000 3.000000
      vertex -16.648000 7.314000 3.000000
      vertex -25.619000 6.913000 3.000000
    endloop
  endfacet
  facet normal 0.000000 0.000000 1.000000
    outer loop
      vertex 26.000000 6.000000 3.000000
      vertex 25.168309 4.118889 3.000000
      vertex 25.675000 4.052000 3.000000
    endloop
  endfacet
  facet normal 0.000000 0.000000 1.000000
    outer loop
      vertex 17.250000 10.763140 3.000000
      vertex -0.445000 12.147000 3.000000
      vertex -0.008000 11.912000 3.000000
    endloop
  endfacet
  facet normal 0.000000 0.000000 1.000000
    outer loop
      vertex 25.675000 4.052000 3.000000
      vertex 24.213244 2.464668 3.000000
      vertex 24.735000 2.315000 3.000000
    endloop
  endfacet
  facet normal 0.000000 0.000000 1.000000
    outer loop
      vertex 24.735000 2.315000 3.000000
      vertex 22.750000 1.236860 3.000000
      vertex 23.282000 0.977000 3.000000
    endloop
  endfacet
  facet normal 0.000000 0.000000 1.000000
    outer loop
      vertex 23.282000 0.977000 3.000000
      vertex 20.955065 0.583557 3.000000
      vertex 21.473000 0.184000 3.000000
    endloop
  endfacet
  facet normal 0.000000 -0.000000 1.000000
    outer loop
      vertex 20.955065 0.583557 3.000000
      vertex 19.044935 0.583557 3.000000
      vertex 21.473000 0.184000 3.000000
    endloop
  endfacet
  facet normal -0.000000 0.000000 1.000000
    outer loop
      vertex -16.648000 7.314000 3.000000
      vertex -2.366000 14.907000 3.000000
      vertex -25.619000 6.913000 3.000000
    endloop
  endfacet
  facet normal -0.000000 0.000000 1.000000
    outer loop
      vertex 6.461000 21.874000 3.000000
      vertex 6.068000 22.178000 3.000000
      vertex -25.619000 6.913000 3.000000
    endloop
  endfacet
  facet normal 0.000000 0.000000 1.000000
    outer loop
      vertex -0.217000 21.713000 3.000000
      vertex -23.347000 9.415000 3.000000
      vertex -23.313000 9.352000 3.000000
    endloop
  endfacet
  facet normal 0.000000 0.000000 1.000000
    outer loop
      vertex 20.955065 11.416443 3.000000
      vertex 23.282000 11.023000 3.000000
      vertex 23.267000 11.030000 3.000000
    endloop
  endfacet
  facet normal 0.000000 0.000000 1.000000
    outer loop
      vertex 20.955065 11.416443 3.000000
      vertex 22.750000 10.763140 3.000000
      vertex 23.282000 11.023000 3.000000
    endloop
  endfacet
  facet normal 0.000000 0.000000 1.000000
    outer loop
      vertex 14.831691 4.118889 3.000000
      vertex 14.500000 6.000000 3.000000
      vertex 10.524000 5.000000 3.000000
    endloop
  endfacet
  facet normal 0.000000 0.000000 1.000000
    outer loop
      vertex 19.044935 0.583557 3.000000
      vertex 20.000000 0.061000 3.000000
      vertex 21.473000 0.184000 3.000000
    endloop
  endfacet
  facet normal 0.000000 0.000000 1.000000
    outer loop
      vertex 3.047000 17.360000 3.000000
      vertex 3.616000 17.208000 3.000000
      vertex 6.461000 21.874000 3.000000
    endloop
  endfacet
  facet normal 0.000000 0.000000 1.000000
    outer loop
      vertex -16.000000 5.000000 3.000000
      vertex -16.381000 6.913000 3.000000
      vertex -25.619000 6.913000 3.000000
    endloop
  endfacet
  facet normal -0.831814 -0.555055 -0.000000
    outer loop
      vertex -25.619000 3.087000 0.000000
      vertex -24.536000 1.464000 0.000000
      vertex -25.619000 3.087000 3.000000
    endloop
  endfacet
  facet normal -0.831814 -0.555055 0.000000
    outer loop
      vertex -25.619000 3.087000 3.000000
      vertex -24.536000 1.464000 0.000000
      vertex -24.536000 1.464000 3.000000
    endloop
  endfacet
  facet normal -0.555055 -0.831814 0.000000
    outer loop
      vertex -24.536000 1.464000 3.000000
      vertex -24.536000 1.464000 0.000000
      vertex -22.913000 0.381000 0.000000
    endloop
  endfacet
  facet normal -0.555055 -0.831814 0.000000
    outer loop
      vertex -22.913000 0.381000 3.000000
      vertex -24.536000 1.464000 3.000000
      vertex -22.913000 0.381000 0.000000
    endloop
  endfacet
  facet normal -0.195327 -0.980738 0.000000
    outer loop
      vertex -22.913000 0.381000 3.000000
      vertex -22.913000 0.381000 0.000000
      vertex -21.000000 0.000000 0.000000
    endloop
  endfacet
  facet normal -0.195327 -0.980738 0.000000
    outer loop
      vertex -21.000000 0.000000 3.000000
      vertex -22.913000 0.381000 3.000000
      vertex -21.000000 0.000000 0.000000
    endloop
  endfacet
  facet normal 0.000000 -1.000000 0.000000
    outer loop
      vertex -21.000000 0.000000 3.000000
      vertex -21.000000 0.000000 0.000000
      vertex 20.000000 0.000000 0.000000
    endloop
  endfacet
  facet normal 0.000000 -1.000000 0.000000
    outer loop
      vertex 20.000000 0.000000 3.000000
      vertex -21.000000 0.000000 3.000000
      vertex 20.000000 0.000000 0.000000
    endloop
  endfacet
  facet normal 1.000000 0.000000 -0.000000
    outer loop
      vertex 20.000000 0.000000 3.000000
      vertex 20.000000 0.000000 0.000000
      vertex 20.000000 0.061000 0.000000
    endloop
  endfacet
  facet normal 1.000000 0.000000 0.000000
    outer loop
      vertex 20.000000 0.061000 3.000000
      vertex 20.000000 0.000000 3.000000
      vertex 20.000000 0.061000 0.000000
    endloop
  endfacet
  facet normal 0.083213 -0.996532 0.000000
    outer loop
      vertex 20.000000 0.061000 3.000000
      vertex 20.000000 0.061000 0.000000
      vertex 21.473000 0.184000 0.000000
    endloop
  endfacet
  facet normal 0.083213 -0.996532 0.000000
    outer loop
      vertex 21.473000 0.184000 3.000000
      vertex 20.000000 0.061000 3.000000
      vertex 21.473000 0.184000 0.000000
    endloop
  endfacet
  facet normal 0.401483 -0.915867 0.000000
    outer loop
      vertex 21.473000 0.184000 3.000000
      vertex 21.473000 0.184000 0.000000
      vertex 23.282000 0.977000 0.000000
    endloop
  endfacet
  facet normal 0.401483 -0.915867 0.000000
    outer loop
      vertex 23.282000 0.977000 3.000000
      vertex 21.473000 0.184000 3.000000
      vertex 23.282000 0.977000 0.000000
    endloop
  endfacet
  facet normal 0.677396 -0.735618 0.000000
    outer loop
      vertex 23.282000 0.977000 3.000000
      vertex 23.282000 0.977000 0.000000
      vertex 24.735000 2.315000 0.000000
    endloop
  endfacet
  facet normal 0.677396 -0.735618 0.000000
    outer loop
      vertex 24.735000 2.315000 3.000000
      vertex 23.282000 0.977000 3.000000
      vertex 24.735000 2.315000 0.000000
    endloop
  endfacet
  facet normal 0.879477 -0.475941 0.000000
    outer loop
      vertex 24.735000 2.315000 3.000000
      vertex 24.735000 2.315000 0.000000
      vertex 25.675000 4.052000 0.000000
    endloop
  endfacet
  facet normal 0.879477 -0.475941 0.000000
    outer loop
      vertex 25.675000 4.052000 3.000000
      vertex 24.735000 2.315000 3.000000
      vertex 25.675000 4.052000 0.000000
    endloop
  endfacet
  facet normal 0.986367 -0.164563 0.000000
    outer loop
      vertex 25.675000 4.052000 3.000000
      vertex 25.675000 4.052000 0.000000
      vertex 26.000000 6.000000 0.000000
    endloop
  endfacet
  facet normal 0.986367 -0.164563 0.000000
    outer loop
      vertex 26.000000 6.000000 3.000000
      vertex 25.675000 4.052000 3.000000
      vertex 26.000000 6.000000 0.000000
    endloop
  endfacet
  facet normal 0.986367 0.164563 0.000000
    outer loop
      vertex 26.000000 6.000000 0.000000
      vertex 25.675000 7.948000 0.000000
      vertex 25.675000 7.948000 3.000000
    endloop
  endfacet
  facet normal 0.986367 0.164563 -0.000000
    outer loop
      vertex 26.000000 6.000000 3.000000
      vertex 26.000000 6.000000 0.000000
      vertex 25.675000 7.948000 3.000000
    endloop
  endfacet
  facet normal 0.879477 0.475941 0.000000
    outer loop
      vertex 25.675000 7.948000 0.000000
      vertex 24.735000 9.685000 0.000000
      vertex 24.735000 9.685000 3.000000
    endloop
  endfacet
  facet normal 0.879477 0.475941 -0.000000
    outer loop
      vertex 25.675000 7.948000 3.000000
      vertex 25.675000 7.948000 0.000000
      vertex 24.735000 9.685000 3.000000
    endloop
  endfacet
  facet normal 0.677396 0.735618 0.000000
    outer loop
      vertex 23.282000 11.023000 0.000000
      vertex 23.282000 11.023000 3.000000
      vertex 24.735000 9.685000 0.000000
    endloop
  endfacet
  facet normal 0.677396 0.735618 0.000000
    outer loop
      vertex 24.735000 9.685000 0.000000
      vertex 23.282000 11.023000 3.000000
      vertex 24.735000 9.685000 3.000000
    endloop
  endfacet
  facet normal 0.422885 0.906183 0.000000
    outer loop
      vertex 23.267000 11.030000 0.000000
      vertex 23.267000 11.030000 3.000000
      vertex 23.282000 11.023000 0.000000
    endloop
  endfacet
  facet normal 0.422885 0.906183 0.000000
    outer loop
      vertex 23.282000 11.023000 0.000000
      vertex 23.267000 11.030000 3.000000
      vertex 23.282000 11.023000 3.000000
    endloop
  endfacet
  facet normal 0.894427 -0.447214 0.000000
    outer loop
      vertex 23.267000 11.030000 3.000000
      vertex 23.267000 11.030000 0.000000
      vertex 23.268000 11.032000 0.000000
    endloop
  endfacet
  facet normal 0.894427 -0.447214 0.000000
    outer loop
      vertex 23.268000 11.032000 3.000000
      vertex 23.267000 11.030000 3.000000
      vertex 23.268000 11.032000 0.000000
    endloop
  endfacet
  facet normal 0.544633 0.838674 0.000000
    outer loop
      vertex 6.494000 21.925000 0.000000
      vertex 6.494000 21.925000 3.000000
      vertex 23.268000 11.032000 0.000000
    endloop
  endfacet
  facet normal 0.544633 0.838674 0.000000
    outer loop
      vertex 23.268000 11.032000 0.000000
      vertex 6.494000 21.925000 3.000000
      vertex 23.268000 11.032000 3.000000
    endloop
  endfacet
  facet normal -0.839570 0.543251 0.000000
    outer loop
      vertex 6.461000 21.874000 0.000000
      vertex 6.461000 21.874000 3.000000
      vertex 6.494000 21.925000 0.000000
    endloop
  endfacet
  facet normal -0.839570 0.543251 0.000000
    outer loop
      vertex 6.494000 21.925000 0.000000
      vertex 6.461000 21.874000 3.000000
      vertex 6.494000 21.925000 3.000000
    endloop
  endfacet
  facet normal 0.611848 0.790975 0.000000
    outer loop
      vertex 6.068000 22.178000 0.000000
      vertex 6.068000 22.178000 3.000000
      vertex 6.461000 21.874000 0.000000
    endloop
  endfacet
  facet normal 0.611848 0.790975 0.000000
    outer loop
      vertex 6.461000 21.874000 0.000000
      vertex 6.068000 22.178000 3.000000
      vertex 6.461000 21.874000 3.000000
    endloop
  endfacet
  facet normal 0.321993 0.946742 0.000000
    outer loop
      vertex 4.198000 22.814000 0.000000
      vertex 4.198000 22.814000 3.000000
      vertex 6.068000 22.178000 0.000000
    endloop
  endfacet
  facet normal 0.321993 0.946742 0.000000
    outer loop
      vertex 6.068000 22.178000 0.000000
      vertex 4.198000 22.814000 3.000000
      vertex 6.068000 22.178000 3.000000
    endloop
  endfacet
  facet normal -0.003036 0.999995 0.000000
    outer loop
      vertex 2.222000 22.808000 0.000000
      vertex 2.222000 22.808000 3.000000
      vertex 4.198000 22.814000 0.000000
    endloop
  endfacet
  facet normal -0.003036 0.999995 0.000000
    outer loop
      vertex 4.198000 22.814000 0.000000
      vertex 2.222000 22.808000 3.000000
      vertex 4.198000 22.814000 3.000000
    endloop
  endfacet
  facet normal -0.326836 0.945081 0.000000
    outer loop
      vertex 1.395000 22.522000 0.000000
      vertex 1.395000 22.522000 3.000000
      vertex 2.222000 22.808000 0.000000
    endloop
  endfacet
  facet normal -0.326836 0.945081 0.000000
    outer loop
      vertex 2.222000 22.808000 0.000000
      vertex 1.395000 22.522000 3.000000
      vertex 2.222000 22.808000 3.000000
    endloop
  endfacet
  facet normal 0.884918 0.465746 0.000000
    outer loop
      vertex 1.395000 22.522000 0.000000
      vertex 1.375000 22.560000 0.000000
      vertex 1.375000 22.560000 3.000000
    endloop
  endfacet
  facet normal 0.884918 0.465746 -0.000000
    outer loop
      vertex 1.395000 22.522000 3.000000
      vertex 1.395000 22.522000 0.000000
      vertex 1.375000 22.560000 3.000000
    endloop
  endfacet
  facet normal -0.470213 0.882553 0.000000
    outer loop
      vertex 1.131000 22.430000 0.000000
      vertex 1.131000 22.430000 3.000000
      vertex 1.375000 22.560000 0.000000
    endloop
  endfacet
  facet normal -0.470213 0.882553 0.000000
    outer loop
      vertex 1.375000 22.560000 0.000000
      vertex 1.131000 22.430000 3.000000
      vertex 1.375000 22.560000 3.000000
    endloop
  endfacet
  facet normal -0.326817 0.945088 0.000000
    outer loop
      vertex 0.356000 22.162000 0.000000
      vertex 0.356000 22.162000 3.000000
      vertex 1.131000 22.430000 0.000000
    endloop
  endfacet
  facet normal -0.326817 0.945088 0.000000
    outer loop
      vertex 1.131000 22.430000 0.000000
      vertex 0.356000 22.162000 3.000000
      vertex 1.131000 22.430000 3.000000
    endloop
  endfacet
  facet normal -0.616790 0.787128 0.000000
    outer loop
      vertex -0.217000 21.713000 0.000000
      vertex -0.217000 21.713000 3.000000
      vertex 0.356000 22.162000 0.000000
    endloop
  endfacet
  facet normal -0.616790 0.787128 0.000000
    outer loop
      vertex 0.356000 22.162000 0.000000
      vertex -0.217000 21.713000 3.000000
      vertex 0.356000 22.162000 3.000000
    endloop
  endfacet
  facet normal -0.469458 0.882955 0.000000
    outer loop
      vertex -23.347000 9.415000 0.000000
      vertex -23.347000 9.415000 3.000000
      vertex -0.217000 21.713000 0.000000
    endloop
  endfacet
  facet normal -0.469458 0.882955 0.000000
    outer loop
      vertex -0.217000 21.713000 0.000000
      vertex -23.347000 9.415000 3.000000
      vertex -0.217000 21.713000 3.000000
    endloop
  endfacet
  facet normal -0.880022 -0.474933 -0.000000
    outer loop
      vertex -23.347000 9.415000 0.000000
      vertex -23.313000 9.352000 0.000000
      vertex -23.347000 9.415000 3.000000
    endloop
  endfacet
  facet normal -0.880022 -0.474933 0.000000
    outer loop
      vertex -23.347000 9.415000 3.000000
      vertex -23.313000 9.352000 0.000000
      vertex -23.313000 9.352000 3.000000
    endloop
  endfacet
  facet normal -0.555014 0.831841 0.000000
    outer loop
      vertex -24.536000 8.536000 0.000000
      vertex -24.536000 8.536000 3.000000
      vertex -23.313000 9.352000 0.000000
    endloop
  endfacet
  facet normal -0.555014 0.831841 0.000000
    outer loop
      vertex -23.313000 9.352000 0.000000
      vertex -24.536000 8.536000 3.000000
      vertex -23.313000 9.352000 3.000000
    endloop
  endfacet
  facet normal -0.831814 0.555055 0.000000
    outer loop
      vertex -25.619000 6.913000 0.000000
      vertex -25.619000 6.913000 3.000000
      vertex -24.536000 8.536000 0.000000
    endloop
  endfacet
  facet normal -0.831814 0.555055 0.000000
    outer loop
      vertex -24.536000 8.536000 0.000000
      vertex -25.619000 6.913000 3.000000
      vertex -24.536000 8.536000 3.000000
    endloop
  endfacet
  facet normal 0.309086 -0.951034 0.000000
    outer loop
      vertex -21.405000 5.294000 3.000000
      vertex -21.405000 5.294000 0.000000
      vertex -20.845000 5.476000 0.000000
    endloop
  endfacet
  facet normal 0.309086 -0.951034 0.000000
    outer loop
      vertex -20.845000 5.476000 3.000000
      vertex -21.405000 5.294000 3.000000
      vertex -20.845000 5.476000 0.000000
    endloop
  endfacet
  facet normal 1.000000 0.000000 -0.000000
    outer loop
      vertex -21.405000 4.706000 3.000000
      vertex -21.405000 4.706000 0.000000
      vertex -21.405000 5.294000 0.000000
    endloop
  endfacet
  facet normal 1.000000 0.000000 0.000000
    outer loop
      vertex -21.405000 5.294000 3.000000
      vertex -21.405000 4.706000 3.000000
      vertex -21.405000 5.294000 0.000000
    endloop
  endfacet
  facet normal -0.809691 -0.586856 -0.000000
    outer loop
      vertex -20.845000 5.476000 0.000000
      vertex -20.500000 5.000000 0.000000
      vertex -20.845000 5.476000 3.000000
    endloop
  endfacet
  facet normal -0.809691 -0.586856 0.000000
    outer loop
      vertex -20.845000 5.476000 3.000000
      vertex -20.500000 5.000000 0.000000
      vertex -20.500000 5.000000 3.000000
    endloop
  endfacet
  facet normal -0.809691 0.586856 0.000000
    outer loop
      vertex -20.845000 4.524000 0.000000
      vertex -20.845000 4.524000 3.000000
      vertex -20.500000 5.000000 0.000000
    endloop
  endfacet
  facet normal -0.809691 0.586856 0.000000
    outer loop
      vertex -20.500000 5.000000 0.000000
      vertex -20.845000 4.524000 3.000000
      vertex -20.500000 5.000000 3.000000
    endloop
  endfacet
  facet normal 0.309086 0.951034 0.000000
    outer loop
      vertex -21.405000 4.706000 0.000000
      vertex -21.405000 4.706000 3.000000
      vertex -20.845000 4.524000 0.000000
    endloop
  endfacet
  facet normal 0.309086 0.951034 0.000000
    outer loop
      vertex -20.845000 4.524000 0.000000
      vertex -21.405000 4.706000 3.000000
      vertex -20.845000 4.524000 3.000000
    endloop
  endfacet
  facet normal 0.832370 0.554221 0.000000
    outer loop
      vertex -16.381000 6.913000 0.000000
      vertex -16.648000 7.314000 0.000000
      vertex -16.648000 7.314000 3.000000
    endloop
  endfacet
  facet normal 0.832370 0.554221 -0.000000
    outer loop
      vertex -16.381000 6.913000 3.000000
      vertex -16.381000 6.913000 0.000000
      vertex -16.648000 7.314000 3.000000
    endloop
  endfacet
  facet normal 0.469429 -0.882970 0.000000
    outer loop
      vertex -16.648000 7.314000 3.000000
      vertex -16.648000 7.314000 0.000000
      vertex -2.366000 14.907000 0.000000
    endloop
  endfacet
  facet normal 0.469429 -0.882970 0.000000
    outer loop
      vertex -2.366000 14.907000 3.000000
      vertex -16.648000 7.314000 3.000000
      vertex -2.366000 14.907000 0.000000
    endloop
  endfacet
  facet normal -0.914645 -0.404259 -0.000000
    outer loop
      vertex -2.366000 14.907000 0.000000
      vertex -1.787000 13.597000 0.000000
      vertex -2.366000 14.907000 3.000000
    endloop
  endfacet
  facet normal -0.914645 -0.404259 0.000000
    outer loop
      vertex -2.366000 14.907000 3.000000
      vertex -1.787000 13.597000 0.000000
      vertex -1.787000 13.597000 3.000000
    endloop
  endfacet
  facet normal -0.733910 -0.679247 -0.000000
    outer loop
      vertex -1.787000 13.597000 0.000000
      vertex -0.445000 12.147000 0.000000
      vertex -1.787000 13.597000 3.000000
    endloop
  endfacet
  facet normal -0.733910 -0.679247 0.000000
    outer loop
      vertex -1.787000 13.597000 3.000000
      vertex -0.445000 12.147000 0.000000
      vertex -0.445000 12.147000 3.000000
    endloop
  endfacet
  facet normal -0.473619 -0.880730 0.000000
    outer loop
      vertex -0.445000 12.147000 3.000000
      vertex -0.445000 12.147000 0.000000
      vertex -0.008000 11.912000 0.000000
    endloop
  endfacet
  facet normal -0.473619 -0.880730 0.000000
    outer loop
      vertex -0.008000 11.912000 3.000000
      vertex -0.445000 12.147000 3.000000
      vertex -0.008000 11.912000 0.000000
    endloop
  endfacet
  facet normal -0.839570 0.543251 0.000000
    outer loop
      vertex -0.041000 11.861000 0.000000
      vertex -0.041000 11.861000 3.000000
      vertex -0.008000 11.912000 0.000000
    endloop
  endfacet
  facet normal -0.839570 0.543251 0.000000
    outer loop
      vertex -0.008000 11.912000 0.000000
      vertex -0.041000 11.861000 3.000000
      vertex -0.008000 11.912000 3.000000
    endloop
  endfacet
  facet normal -0.544640 -0.838670 0.000000
    outer loop
      vertex -0.041000 11.861000 3.000000
      vertex -0.041000 11.861000 0.000000
      vertex 10.524000 5.000000 0.000000
    endloop
  endfacet
  facet normal -0.544640 -0.838670 0.000000
    outer loop
      vertex 10.524000 5.000000 3.000000
      vertex -0.041000 11.861000 3.000000
      vertex 10.524000 5.000000 0.000000
    endloop
  endfacet
  facet normal 0.000000 1.000000 0.000000
    outer loop
      vertex -16.000000 5.000000 0.000000
      vertex -16.000000 5.000000 3.000000
      vertex 10.524000 5.000000 0.000000
    endloop
  endfacet
  facet normal 0.000000 1.000000 0.000000
    outer loop
      vertex 10.524000 5.000000 0.000000
      vertex -16.000000 5.000000 3.000000
      vertex 10.524000 5.000000 3.000000
    endloop
  endfacet
  facet normal 0.980738 0.195327 0.000000
    outer loop
      vertex -16.000000 5.000000 0.000000
      vertex -16.381000 6.913000 0.000000
      vertex -16.381000 6.913000 3.000000
    endloop
  endfacet
  facet normal 0.980738 0.195327 -0.000000
    outer loop
      vertex -16.000000 5.000000 3.000000
      vertex -16.000000 5.000000 0.000000
      vertex -16.381000 6.913000 3.000000
    endloop
  endfacet
  facet normal -0.258085 -0.966122 0.000000
    outer loop
      vertex 3.047000 17.360000 3.000000
      vertex 3.047000 17.360000 0.000000
      vertex 3.616000 17.208000 0.000000
    endloop
  endfacet
  facet normal -0.258085 -0.966122 0.000000
    outer loop
      vertex 3.616000 17.208000 3.000000
      vertex 3.047000 17.360000 3.000000
      vertex 3.616000 17.208000 0.000000
    endloop
  endfacet
  facet normal 0.838793 -0.544450 0.000000
    outer loop
      vertex 2.727000 16.867000 3.000000
      vertex 2.727000 16.867000 0.000000
      vertex 3.047000 17.360000 0.000000
    endloop
  endfacet
  facet normal 0.838793 -0.544450 0.000000
    outer loop
      vertex 3.047000 17.360000 3.000000
      vertex 2.727000 16.867000 3.000000
      vertex 3.047000 17.360000 0.000000
    endloop
  endfacet
  facet normal -0.998701 -0.050954 -0.000000
    outer loop
      vertex 3.616000 17.208000 0.000000
      vertex 3.646000 16.620000 0.000000
      vertex 3.616000 17.208000 3.000000
    endloop
  endfacet
  facet normal -0.998701 -0.050954 0.000000
    outer loop
      vertex 3.616000 17.208000 3.000000
      vertex 3.646000 16.620000 0.000000
      vertex 3.646000 16.620000 3.000000
    endloop
  endfacet
  facet normal -0.358751 0.933433 0.000000
    outer loop
      vertex 3.097000 16.409000 0.000000
      vertex 3.097000 16.409000 3.000000
      vertex 3.646000 16.620000 0.000000
    endloop
  endfacet
  facet normal -0.358751 0.933433 0.000000
    outer loop
      vertex 3.646000 16.620000 0.000000
      vertex 3.097000 16.409000 3.000000
      vertex 3.646000 16.620000 3.000000
    endloop
  endfacet
  facet normal 0.777877 0.628416 0.000000
    outer loop
      vertex 3.097000 16.409000 0.000000
      vertex 2.727000 16.867000 0.000000
      vertex 2.727000 16.867000 3.000000
    endloop
  endfacet
  facet normal 0.777877 0.628416 -0.000000
    outer loop
      vertex 3.097000 16.409000 3.000000
      vertex 3.097000 16.409000 0.000000
      vertex 2.727000 16.867000 3.000000
    endloop
  endfacet
  facet normal 0.885456 -0.464723 0.000000
    outer loop
      vertex 17.005957 8.652491 0.000000
      vertex 17.005957 8.652491 8.500000
      vertex 16.116233 6.957263 8.500000
    endloop
  endfacet
  facet normal 0.885456 -0.464723 0.000000
    outer loop
      vertex 16.116233 6.957263 0.000000
      vertex 17.005957 8.652491 0.000000
      vertex 16.116233 6.957263 8.500000
    endloop
  endfacet
  facet normal 1.000000 0.000000 0.000000
    outer loop
      vertex 16.116233 6.957263 0.000000
      vertex 16.116233 6.957263 8.500000
      vertex 16.116233 5.042737 8.500000
    endloop
  endfacet
  facet normal 1.000000 0.000000 0.000000
    outer loop
      vertex 16.116233 5.042737 0.000000
      vertex 16.116233 6.957263 0.000000
      vertex 16.116233 5.042737 8.500000
    endloop
  endfacet
  facet normal 0.568065 -0.822984 0.000000
    outer loop
      vertex 18.581580 9.740065 0.000000
      vertex 18.581580 9.740065 8.500000
      vertex 17.005957 8.652491 8.500000
    endloop
  endfacet
  facet normal 0.568065 -0.822984 0.000000
    outer loop
      vertex 17.005957 8.652491 0.000000
      vertex 18.581580 9.740065 0.000000
      vertex 17.005957 8.652491 8.500000
    endloop
  endfacet
  facet normal 0.120536 -0.992709 0.000000
    outer loop
      vertex 20.482147 9.970835 0.000000
      vertex 20.482147 9.970835 8.500000
      vertex 18.581580 9.740065 8.500000
    endloop
  endfacet
  facet normal 0.120536 -0.992709 0.000000
    outer loop
      vertex 18.581580 9.740065 0.000000
      vertex 20.482147 9.970835 0.000000
      vertex 18.581580 9.740065 8.500000
    endloop
  endfacet
  facet normal -0.354605 -0.935016 -0.000000
    outer loop
      vertex 22.272259 9.291935 0.000000
      vertex 22.272259 9.291935 8.500000
      vertex 20.482147 9.970835 8.500000
    endloop
  endfacet
  facet normal -0.354605 -0.935016 -0.000000
    outer loop
      vertex 20.482147 9.970835 0.000000
      vertex 22.272259 9.291935 0.000000
      vertex 20.482147 9.970835 8.500000
    endloop
  endfacet
  facet normal -0.748511 -0.663123 0.000000
    outer loop
      vertex 23.541824 7.858893 8.500000
      vertex 22.272259 9.291935 8.500000
      vertex 23.541824 7.858893 0.000000
    endloop
  endfacet
  facet normal -0.748511 -0.663123 0.000000
    outer loop
      vertex 23.541824 7.858893 0.000000
      vertex 22.272259 9.291935 8.500000
      vertex 22.272259 9.291935 0.000000
    endloop
  endfacet
  facet normal -0.970942 -0.239316 0.000000
    outer loop
      vertex 24.000000 6.000000 8.500000
      vertex 23.541824 7.858893 8.500000
      vertex 24.000000 6.000000 0.000000
    endloop
  endfacet
  facet normal -0.970942 -0.239316 0.000000
    outer loop
      vertex 24.000000 6.000000 0.000000
      vertex 23.541824 7.858893 8.500000
      vertex 23.541824 7.858893 0.000000
    endloop
  endfacet
  facet normal -0.970942 0.239316 0.000000
    outer loop
      vertex 24.000000 6.000000 8.500000
      vertex 24.000000 6.000000 0.000000
      vertex 23.541824 4.141107 8.500000
    endloop
  endfacet
  facet normal -0.970942 0.239316 0.000000
    outer loop
      vertex 23.541824 4.141107 8.500000
      vertex 24.000000 6.000000 0.000000
      vertex 23.541824 4.141107 0.000000
    endloop
  endfacet
  facet normal -0.748511 0.663123 0.000000
    outer loop
      vertex 23.541824 4.141107 8.500000
      vertex 23.541824 4.141107 0.000000
      vertex 22.272259 2.708065 8.500000
    endloop
  endfacet
  facet normal -0.748511 0.663123 0.000000
    outer loop
      vertex 22.272259 2.708065 8.500000
      vertex 23.541824 4.141107 0.000000
      vertex 22.272259 2.708065 0.000000
    endloop
  endfacet
  facet normal -0.354605 0.935016 0.000000
    outer loop
      vertex 22.272259 2.708065 8.500000
      vertex 22.272259 2.708065 0.000000
      vertex 20.482147 2.029165 8.500000
    endloop
  endfacet
  facet normal -0.354605 0.935016 0.000000
    outer loop
      vertex 20.482147 2.029165 8.500000
      vertex 22.272259 2.708065 0.000000
      vertex 20.482147 2.029165 0.000000
    endloop
  endfacet
  facet normal 0.120536 0.992709 -0.000000
    outer loop
      vertex 20.482147 2.029165 8.500000
      vertex 20.482147 2.029165 0.000000
      vertex 18.581580 2.259935 8.500000
    endloop
  endfacet
  facet normal 0.120536 0.992709 -0.000000
    outer loop
      vertex 18.581580 2.259935 8.500000
      vertex 20.482147 2.029165 0.000000
      vertex 18.581580 2.259935 0.000000
    endloop
  endfacet
  facet normal 0.568065 0.822984 -0.000000
    outer loop
      vertex 18.581580 2.259935 8.500000
      vertex 18.581580 2.259935 0.000000
      vertex 17.005957 3.347509 8.500000
    endloop
  endfacet
  facet normal 0.568065 0.822984 -0.000000
    outer loop
      vertex 17.005957 3.347509 8.500000
      vertex 18.581580 2.259935 0.000000
      vertex 17.005957 3.347509 0.000000
    endloop
  endfacet
  facet normal 0.885456 0.464723 0.000000
    outer loop
      vertex 16.116233 5.042737 8.500000
      vertex 17.005957 3.347509 8.500000
      vertex 17.005957 3.347509 0.000000
    endloop
  endfacet
  facet normal 0.885456 0.464723 0.000000
    outer loop
      vertex 16.116233 5.042737 0.000000
      vertex 16.116233 5.042737 8.500000
      vertex 17.005957 3.347509 0.000000
    endloop
  endfacet
  facet normal -0.866025 -0.500000 -0.000000
    outer loop
      vertex 14.831691 4.118889 3.000000
      vertex 15.786756 2.464668 3.000000
      vertex 14.831691 4.118889 8.500000
    endloop
  endfacet
  facet normal -0.866025 -0.500000 0.000000
    outer loop
      vertex 14.831691 4.118889 8.500000
      vertex 15.786756 2.464668 3.000000
      vertex 15.786756 2.464668 8.500000
    endloop
  endfacet
  facet normal -0.984808 -0.173648 -0.000000
    outer loop
      vertex 14.500000 6.000000 3.000000
      vertex 14.831691 4.118889 3.000000
      vertex 14.500000 6.000000 8.500000
    endloop
  endfacet
  facet normal -0.984808 -0.173648 0.000000
    outer loop
      vertex 14.500000 6.000000 8.500000
      vertex 14.831691 4.118889 3.000000
      vertex 14.831691 4.118889 8.500000
    endloop
  endfacet
  facet normal -0.642788 -0.766044 0.000000
    outer loop
      vertex 15.786756 2.464668 8.500000
      vertex 15.786756 2.464668 3.000000
      vertex 17.250000 1.236860 3.000000
    endloop
  endfacet
  facet normal -0.642788 -0.766044 0.000000
    outer loop
      vertex 17.250000 1.236860 8.500000
      vertex 15.786756 2.464668 8.500000
      vertex 17.250000 1.236860 3.000000
    endloop
  endfacet
  facet normal -0.342020 -0.939693 0.000000
    outer loop
      vertex 17.250000 1.236860 8.500000
      vertex 17.250000 1.236860 3.000000
      vertex 19.044935 0.583557 3.000000
    endloop
  endfacet
  facet normal -0.342020 -0.939693 0.000000
    outer loop
      vertex 19.044935 0.583557 8.500000
      vertex 17.250000 1.236860 8.500000
      vertex 19.044935 0.583557 3.000000
    endloop
  endfacet
  facet normal 0.000000 -1.000000 0.000000
    outer loop
      vertex 19.044935 0.583557 8.500000
      vertex 19.044935 0.583557 3.000000
      vertex 20.955065 0.583557 3.000000
    endloop
  endfacet
  facet normal 0.000000 -1.000000 0.000000
    outer loop
      vertex 20.955065 0.583557 8.500000
      vertex 19.044935 0.583557 8.500000
      vertex 20.955065 0.583557 3.000000
    endloop
  endfacet
  facet normal 0.342020 -0.939693 0.000000
    outer loop
      vertex 20.955065 0.583557 8.500000
      vertex 20.955065 0.583557 3.000000
      vertex 22.750000 1.236860 3.000000
    endloop
  endfacet
  facet normal 0.342020 -0.939693 0.000000
    outer loop
      vertex 22.750000 1.236860 8.500000
      vertex 20.955065 0.583557 8.500000
      vertex 22.750000 1.236860 3.000000
    endloop
  endfacet
  facet normal 0.642788 -0.766044 0.000000
    outer loop
      vertex 22.750000 1.236860 8.500000
      vertex 22.750000 1.236860 3.000000
      vertex 24.213244 2.464668 3.000000
    endloop
  endfacet
  facet normal 0.642788 -0.766044 0.000000
    outer loop
      vertex 24.213244 2.464668 8.500000
      vertex 22.750000 1.236860 8.500000
      vertex 24.213244 2.464668 3.000000
    endloop
  endfacet
  facet normal 0.866025 -0.500000 0.000000
    outer loop
      vertex 24.213244 2.464668 8.500000
      vertex 24.213244 2.464668 3.000000
      vertex 25.168309 4.118889 3.000000
    endloop
  endfacet
  facet normal 0.866025 -0.500000 0.000000
    outer loop
      vertex 25.168309 4.118889 8.500000
      vertex 24.213244 2.464668 8.500000
      vertex 25.168309 4.118889 3.000000
    endloop
  endfacet
  facet normal 0.984808 -0.173648 0.000000
    outer loop
      vertex 25.168309 4.118889 8.500000
      vertex 25.168309 4.118889 3.000000
      vertex 25.500000 6.000000 3.000000
    endloop
  endfacet
  facet normal 0.984808 -0.173648 0.000000
    outer loop
      vertex 25.500000 6.000000 8.500000
      vertex 25.168309 4.118889 8.500000
      vertex 25.500000 6.000000 3.000000
    endloop
  endfacet
  facet normal 0.984808 0.173648 0.000000
    outer loop
      vertex 25.500000 6.000000 3.000000
      vertex 25.168309 7.881111 3.000000
      vertex 25.168309 7.881111 8.500000
    endloop
  endfacet
  facet normal 0.984808 0.173648 -0.000000
    outer loop
      vertex 25.500000 6.000000 8.500000
      vertex 25.500000 6.000000 3.000000
      vertex 25.168309 7.881111 8.500000
    endloop
  endfacet
  facet normal 0.866025 0.500000 0.000000
    outer loop
      vertex 25.168309 7.881111 3.000000
      vertex 24.213244 9.535332 3.000000
      vertex 24.213244 9.535332 8.500000
    endloop
  endfacet
  facet normal 0.866025 0.500000 -0.000000
    outer loop
      vertex 25.168309 7.881111 8.500000
      vertex 25.168309 7.881111 3.000000
      vertex 24.213244 9.535332 8.500000
    endloop
  endfacet
  facet normal 0.642788 0.766044 0.000000
    outer loop
      vertex 22.750000 10.763140 3.000000
      vertex 22.750000 10.763140 8.500000
      vertex 24.213244 9.535332 3.000000
    endloop
  endfacet
  facet normal 0.642788 0.766044 0.000000
    outer loop
      vertex 24.213244 9.535332 3.000000
      vertex 22.750000 10.763140 8.500000
      vertex 24.213244 9.535332 8.500000
    endloop
  endfacet
  facet normal 0.342020 0.939693 0.000000
    outer loop
      vertex 20.955065 11.416443 3.000000
      vertex 20.955065 11.416443 8.500000
      vertex 22.750000 10.763140 3.000000
    endloop
  endfacet
  facet normal 0.342020 0.939693 0.000000
    outer loop
      vertex 22.750000 10.763140 3.000000
      vertex 20.955065 11.416443 8.500000
      vertex 22.750000 10.763140 8.500000
    endloop
  endfacet
  facet normal 0.000000 1.000000 0.000000
    outer loop
      vertex 19.044935 11.416443 3.000000
      vertex 19.044935 11.416443 8.500000
      vertex 20.955065 11.416443 3.000000
    endloop
  endfacet
  facet normal 0.000000 1.000000 0.000000
    outer loop
      vertex 20.955065 11.416443 3.000000
      vertex 19.044935 11.416443 8.500000
      vertex 20.955065 11.416443 8.500000
    endloop
  endfacet
  facet normal -0.342020 0.939693 0.000000
    outer loop
      vertex 17.250000 10.763140 3.000000
      vertex 17.250000 10.763140 8.500000
      vertex 19.044935 11.416443 3.000000
    endloop
  endfacet
  facet normal -0.342020 0.939693 0.000000
    outer loop
      vertex 19.044935 11.416443 3.000000
      vertex 17.250000 10.763140 8.500000
      vertex 19.044935 11.416443 8.500000
    endloop
  endfacet
  facet normal -0.642788 0.766044 0.000000
    outer loop
      vertex 15.786756 9.535332 3.000000
      vertex 15.786756 9.535332 8.500000
      vertex 17.250000 10.763140 3.000000
    endloop
  endfacet
  facet normal -0.642788 0.766044 0.000000
    outer loop
      vertex 17.250000 10.763140 3.000000
      vertex 15.786756 9.535332 8.500000
      vertex 17.250000 10.763140 8.500000
    endloop
  endfacet
  facet normal -0.866025 0.500000 0.000000
    outer loop
      vertex 14.831691 7.881111 3.000000
      vertex 14.831691 7.881111 8.500000
      vertex 15.786756 9.535332 3.000000
    endloop
  endfacet
  facet normal -0.866025 0.500000 0.000000
    outer loop
      vertex 15.786756 9.535332 3.000000
      vertex 14.831691 7.881111 8.500000
      vertex 15.786756 9.535332 8.500000
    endloop
  endfacet
  facet normal -0.984808 0.173648 0.000000
    outer loop
      vertex 14.500000 6.000000 3.000000
      vertex 14.500000 6.000000 8.500000
      vertex 14.831691 7.881111 3.000000
    endloop
  endfacet
  facet normal -0.984808 0.173648 0.000000
    outer loop
      vertex 14.831691 7.881111 3.000000
      vertex 14.500000 6.000000 8.500000
      vertex 14.831691 7.881111 8.500000
    endloop
  endfacet
  facet normal 0.000000 0.000000 1.000000
    outer loop
      vertex 14.831691 7.881111 8.500000
      vertex 14.500000 6.000000 8.500000
      vertex 14.831691 4.118889 8.500000
    endloop
  endfacet
  facet normal 0.000000 0.000000 1.000000
    outer loop
      vertex 17.250000 1.236860 8.500000
      vertex 14.831691 7.881111 8.500000
      vertex 15.786756 2.464668 8.500000
    endloop
  endfacet
  facet normal 0.000000 0.000000 1.000000
    outer loop
      vertex 15.786756 2.464668 8.500000
      vertex 14.831691 7.881111 8.500000
      vertex 14.831691 4.118889 8.500000
    endloop
  endfacet
  facet normal -0.000000 -0.000000 1.000000
    outer loop
      vertex 16.116233 5.042737 8.500000
      vertex 14.831691 7.881111 8.500000
      vertex 17.250000 1.236860 8.500000
    endloop
  endfacet
  facet normal 0.000000 0.000000 1.000000
    outer loop
      vertex 22.272259 9.291935 8.500000
      vertex 25.168309 7.881111 8.500000
      vertex 24.213244 9.535332 8.500000
    endloop
  endfacet
  facet normal -0.000000 0.000000 1.000000
    outer loop
      vertex 17.005957 8.652491 8.500000
      vertex 18.581580 9.740065 8.500000
      vertex 14.831691 7.881111 8.500000
    endloop
  endfacet
  facet normal 0.000000 0.000000 1.000000
    outer loop
      vertex 20.482147 9.970835 8.500000
      vertex 24.213244 9.535332 8.500000
      vertex 22.750000 10.763140 8.500000
    endloop
  endfacet
  facet normal 0.000000 -0.000000 1.000000
    outer loop
      vertex 19.044935 11.416443 8.500000
      vertex 14.831691 7.881111 8.500000
      vertex 20.955065 11.416443 8.500000
    endloop
  endfacet
  facet normal 0.000000 -0.000000 1.000000
    outer loop
      vertex 17.250000 10.763140 8.500000
      vertex 14.831691 7.881111 8.500000
      vertex 19.044935 11.416443 8.500000
    endloop
  endfacet
  facet normal 0.000000 -0.000000 1.000000
    outer loop
      vertex 15.786756 9.535332 8.500000
      vertex 14.831691 7.881111 8.500000
      vertex 17.250000 10.763140 8.500000
    endloop
  endfacet
  facet normal -0.000000 -0.000000 1.000000
    outer loop
      vertex 17.005957 3.347509 8.500000
      vertex 16.116233 5.042737 8.500000
      vertex 17.250000 1.236860 8.500000
    endloop
  endfacet
  facet normal -0.000000 -0.000000 1.000000
    outer loop
      vertex 20.482147 2.029165 8.500000
      vertex 18.581580 2.259935 8.500000
      vertex 20.955065 0.583557 8.500000
    endloop
  endfacet
  facet normal 0.000000 0.000000 1.000000
    outer loop
      vertex 22.272259 9.291935 8.500000
      vertex 23.541824 7.858893 8.500000
      vertex 25.168309 7.881111 8.500000
    endloop
  endfacet
  facet normal 0.000000 0.000000 1.000000
    outer loop
      vertex 20.482147 9.970835 8.500000
      vertex 22.272259 9.291935 8.500000
      vertex 24.213244 9.535332 8.500000
    endloop
  endfacet
  facet normal 0.000000 -0.000000 1.000000
    outer loop
      vertex 20.955065 11.416443 8.500000
      vertex 18.581580 9.740065 8.500000
      vertex 22.750000 10.763140 8.500000
    endloop
  endfacet
  facet normal 0.000000 0.000000 1.000000
    outer loop
      vertex 20.955065 11.416443 8.500000
      vertex 14.831691 7.881111 8.500000
      vertex 18.581580 9.740065 8.500000
    endloop
  endfacet
  facet normal 0.000000 0.000000 1.000000
    outer loop
      vertex 18.581580 9.740065 8.500000
      vertex 20.482147 9.970835 8.500000
      vertex 22.750000 10.763140 8.500000
    endloop
  endfacet
  facet normal 0.000000 -0.000000 1.000000
    outer loop
      vertex 23.541824 4.141107 8.500000
      vertex 22.272259 2.708065 8.500000
      vertex 24.213244 2.464668 8.500000
    endloop
  endfacet
  facet normal 0.000000 -0.000000 1.000000
    outer loop
      vertex 25.168309 7.881111 8.500000
      vertex 23.541824 7.858893 8.500000
      vertex 25.500000 6.000000 8.500000
    endloop
  endfacet
  facet normal 0.000000 0.000000 1.000000
    outer loop
      vertex 25.500000 6.000000 8.500000
      vertex 24.000000 6.000000 8.500000
      vertex 25.168309 4.118889 8.500000
    endloop
  endfacet
  facet normal -0.000000 0.000000 1.000000
    outer loop
      vertex 25.168309 4.118889 8.500000
      vertex 23.541824 4.141107 8.500000
      vertex 24.213244 2.464668 8.500000
    endloop
  endfacet
  facet normal -0.000000 0.000000 1.000000
    outer loop
      vertex 24.213244 2.464668 8.500000
      vertex 22.272259 2.708065 8.500000
      vertex 22.750000 1.236860 8.500000
    endloop
  endfacet
  facet normal -0.000000 0.000000 1.000000
    outer loop
      vertex 22.750000 1.236860 8.500000
      vertex 20.482147 2.029165 8.500000
      vertex 20.955065 0.583557 8.500000
    endloop
  endfacet
  facet normal 0.000000 0.000000 1.000000
    outer loop
      vertex 23.541824 7.858893 8.500000
      vertex 24.000000 6.000000 8.500000
      vertex 25.500000 6.000000 8.500000
    endloop
  endfacet
  facet normal -0.000000 0.000000 1.000000
    outer loop
      vertex 20.955065 0.583557 8.500000
      vertex 18.581580 2.259935 8.500000
      vertex 19.044935 0.583557 8.500000
    endloop
  endfacet
  facet normal 0.000000 -0.000000 1.000000
    outer loop
      vertex 24.000000 6.000000 8.500000
      vertex 23.541824 4.141107 8.500000
      vertex 25.168309 4.118889 8.500000
    endloop
  endfacet
  facet normal 0.000000 0.000000 1.000000
    outer loop
      vertex 19.044935 0.583557 8.500000
      vertex 17.005957 3.347509 8.500000
      vertex 17.250000 1.236860 8.500000
    endloop
  endfacet
  facet normal 0.000000 0.000000 1.000000
    outer loop
      vertex 16.116233 5.042737 8.500000
      vertex 16.116233 6.957263 8.500000
      vertex 14.831691 7.881111 8.500000
    endloop
  endfacet
  facet normal -0.000000 -0.000000 1.000000
    outer loop
      vertex 18.581580 2.259935 8.500000
      vertex 17.005957 3.347509 8.500000
      vertex 19.044935 0.583557 8.500000
    endloop
  endfacet
  facet normal 0.000000 -0.000000 1.000000
    outer loop
      vertex 22.272259 2.708065 8.500000
      vertex 20.482147 2.029165 8.500000
      vertex 22.750000 1.236860 8.500000
    endloop
  endfacet
  facet normal 0.000000 0.000000 1.000000
    outer loop
      vertex 16.116233 6.957263 8.500000
      vertex 17.005957 8.652491 8.500000
      vertex 14.831691 7.881111 8.500000
    endloop
  endfacet
endsolid OpenSCAD_Model
