solid OpenSCAD_Model
  facet normal 0.172354 -0.977467 -0.121869
    outer loop
      vertex -1.489679 -11.448389 8.510190
      vertex -8.500000 -12.684498 8.510190
      vertex -8.500000 -11.623458 0.000000
    endloop
  endfacet
  facet normal 0.172354 -0.977467 -0.121869
    outer loop
      vertex -1.488260 -11.440344 8.447669
      vertex -1.489679 -11.448389 8.510190
      vertex -8.500000 -11.623458 0.000000
    endloop
  endfacet
  facet normal 0.172354 -0.977467 -0.121869
    outer loop
      vertex -0.022690 -10.128680 0.000000
      vertex -1.488260 -11.440344 8.447669
      vertex -8.500000 -11.623458 0.000000
    endloop
  endfacet
  facet normal 0.172354 -0.977467 -0.121869
    outer loop
      vertex -0.215578 -11.222601 8.501133
      vertex -1.488260 -11.440344 8.447669
      vertex -0.022690 -10.128680 0.000000
    endloop
  endfacet
  facet normal -1.000000 -0.000000 0.000000
    outer loop
      vertex -8.500000 -12.684498 8.510190
      vertex -8.500000 -4.498779 9.500000
      vertex -8.500000 -11.623458 0.000000
    endloop
  endfacet
  facet normal -1.000000 0.000000 0.000000
    outer loop
      vertex -8.500000 5.974553 19.000000
      vertex -8.500000 -4.498779 9.500000
      vertex -8.500000 -5.683227 19.000000
    endloop
  endfacet
  facet normal -1.000000 0.000000 0.000000
    outer loop
      vertex -8.500000 -11.623458 0.000000
      vertex -8.500000 -4.498779 9.500000
      vertex -8.500000 5.974553 19.000000
    endloop
  endfacet
  facet normal -1.000000 -0.000000 0.000000
    outer loop
      vertex -8.500000 -11.623458 0.000000
      vertex -8.500000 5.974553 19.000000
      vertex -8.500000 3.623728 0.000000
    endloop
  endfacet
  facet normal 0.021162 -0.120018 0.992546
    outer loop
      vertex -8.500000 -4.498779 9.500000
      vertex -8.500000 -12.684498 8.510190
      vertex -1.489679 -11.448389 8.510190
    endloop
  endfacet
  facet normal 0.021162 -0.120018 0.992546
    outer loop
      vertex 0.000000 -3.000000 9.500000
      vertex -8.500000 -4.498779 9.500000
      vertex -1.489679 -11.448389 8.510190
    endloop
  endfacet
  facet normal 0.984808 -0.173648 0.000000
    outer loop
      vertex -1.488260 -11.440344 8.447669
      vertex 0.000000 -3.000000 9.500000
      vertex -1.489679 -11.448389 8.510190
    endloop
  endfacet
  facet normal -0.021162 -0.120018 0.992546
    outer loop
      vertex -0.215578 -11.222601 8.501133
      vertex -0.202770 -11.149964 8.510190
      vertex 0.000000 -3.000000 9.500000
    endloop
  endfacet
  facet normal -0.021162 -0.120018 0.992546
    outer loop
      vertex 0.000000 -3.000000 9.500000
      vertex -0.202770 -11.149964 8.510190
      vertex 0.000000 -11.185718 8.510190
    endloop
  endfacet
  facet normal -0.021162 -0.120018 0.992546
    outer loop
      vertex -0.215578 -11.222601 8.501133
      vertex 0.000000 -3.000000 9.500000
      vertex -1.488260 -11.440344 8.447669
    endloop
  endfacet
  facet normal 0.984808 -0.173648 0.000000
    outer loop
      vertex -0.022690 -10.128680 0.000000
      vertex -0.021321 -10.120919 0.000000
      vertex -0.202770 -11.149964 8.510190
    endloop
  endfacet
  facet normal 0.984808 -0.173648 -0.000000
    outer loop
      vertex -0.215578 -11.222601 8.501133
      vertex -0.022690 -10.128680 0.000000
      vertex -0.202770 -11.149964 8.510190
    endloop
  endfacet
  facet normal 0.000000 -0.000000 -1.000000
    outer loop
      vertex -8.500000 -11.623458 0.000000
      vertex -8.500000 3.623728 0.000000
      vertex -0.022690 -10.128680 0.000000
    endloop
  endfacet
  facet normal 0.000000 -0.000000 -1.000000
    outer loop
      vertex -2.200000 3.000000 0.000000
      vertex -8.500000 3.623728 0.000000
      vertex -1.938328 10.185400 0.000000
    endloop
  endfacet
  facet normal 0.000000 0.000000 -1.000000
    outer loop
      vertex -1.100000 4.905256 0.000000
      vertex -1.685298 9.740379 0.000000
      vertex -1.100000 9.241679 0.000000
    endloop
  endfacet
  facet normal 0.000000 0.000000 -1.000000
    outer loop
      vertex 1.100000 4.905256 0.000000
      vertex 1.685298 9.740379 0.000000
      vertex 1.938328 10.185400 0.000000
    endloop
  endfacet
  facet normal 0.000000 -0.000000 -1.000000
    outer loop
      vertex 2.200000 3.000000 0.000000
      vertex 1.938328 10.185400 0.000000
      vertex 8.500000 3.623728 0.000000
    endloop
  endfacet
  facet normal -0.000000 0.000000 -1.000000
    outer loop
      vertex 0.022690 -10.128680 0.000000
      vertex 8.500000 3.623728 0.000000
      vertex 8.500000 -11.623458 0.000000
    endloop
  endfacet
  facet normal -0.000000 0.000000 -1.000000
    outer loop
      vertex 0.021321 -10.120919 0.000000
      vertex 8.500000 3.623728 0.000000
      vertex 0.022690 -10.128680 0.000000
    endloop
  endfacet
  facet normal 0.000000 0.000000 -1.000000
    outer loop
      vertex 0.000000 -10.124679 0.000000
      vertex 8.500000 3.623728 0.000000
      vertex 0.021321 -10.120919 0.000000
    endloop
  endfacet
  facet normal 0.000000 0.000000 -1.000000
    outer loop
      vertex -0.382026 0.833423 0.000000
      vertex -0.022690 -10.128680 0.000000
      vertex -1.100000 1.094744 0.000000
    endloop
  endfacet
  facet normal 0.000000 0.000000 -1.000000
    outer loop
      vertex -0.022690 -10.128680 0.000000
      vertex -8.500000 3.623728 0.000000
      vertex -2.200000 3.000000 0.000000
    endloop
  endfacet
  facet normal 0.000000 -0.000000 -1.000000
    outer loop
      vertex -2.067324 3.752444 0.000000
      vertex -2.200000 3.000000 0.000000
      vertex -1.938328 10.185400 0.000000
    endloop
  endfacet
  facet normal 0.000000 0.000000 -1.000000
    outer loop
      vertex -0.022690 -10.128680 0.000000
      vertex -2.200000 3.000000 0.000000
      vertex -2.067324 2.247556 0.000000
    endloop
  endfacet
  facet normal 0.000000 0.000000 -1.000000
    outer loop
      vertex -0.022690 -10.128680 0.000000
      vertex -2.067324 2.247556 0.000000
      vertex -1.685298 1.585867 0.000000
    endloop
  endfacet
  facet normal 0.000000 0.000000 -1.000000
    outer loop
      vertex -0.022690 -10.128680 0.000000
      vertex -1.685298 1.585867 0.000000
      vertex -1.100000 1.094744 0.000000
    endloop
  endfacet
  facet normal 0.000000 -0.000000 -1.000000
    outer loop
      vertex -1.685298 4.414133 0.000000
      vertex -1.685298 9.740379 0.000000
      vertex -1.100000 4.905256 0.000000
    endloop
  endfacet
  facet normal 0.000000 0.000000 -1.000000
    outer loop
      vertex 0.382026 0.833423 0.000000
      vertex -0.022690 -10.128680 0.000000
      vertex -0.382026 0.833423 0.000000
    endloop
  endfacet
  facet normal -0.000000 0.000000 -1.000000
    outer loop
      vertex -0.382026 5.166577 0.000000
      vertex 0.382026 8.976327 0.000000
      vertex 0.382026 5.166577 0.000000
    endloop
  endfacet
  facet normal 0.000000 0.000000 -1.000000
    outer loop
      vertex 1.100000 1.094744 0.000000
      vertex -0.021321 -10.120919 0.000000
      vertex -0.022690 -10.128680 0.000000
    endloop
  endfacet
  facet normal -0.000000 0.000000 -1.000000
    outer loop
      vertex 1.685298 4.414133 0.000000
      vertex 1.938328 10.185400 0.000000
      vertex 2.067324 3.752444 0.000000
    endloop
  endfacet
  facet normal 0.000000 0.000000 -1.000000
    outer loop
      vertex -0.021321 -10.120919 0.000000
      vertex 1.100000 1.094744 0.000000
      vertex 8.500000 3.623728 0.000000
    endloop
  endfacet
  facet normal -0.000000 0.000000 -1.000000
    outer loop
      vertex 1.100000 4.905256 0.000000
      vertex 1.938328 10.185400 0.000000
      vertex 1.685298 4.414133 0.000000
    endloop
  endfacet
  facet normal 0.000000 0.000000 -1.000000
    outer loop
      vertex 1.100000 1.094744 0.000000
      vertex 1.685298 1.585867 0.000000
      vertex 8.500000 3.623728 0.000000
    endloop
  endfacet
  facet normal 0.000000 0.000000 -1.000000
    outer loop
      vertex 1.685298 1.585867 0.000000
      vertex 2.067324 2.247556 0.000000
      vertex 8.500000 3.623728 0.000000
    endloop
  endfacet
  facet normal -0.000000 -0.000000 -1.000000
    outer loop
      vertex 2.067324 3.752444 0.000000
      vertex 1.938328 10.185400 0.000000
      vertex 2.200000 3.000000 0.000000
    endloop
  endfacet
  facet normal 0.000000 0.000000 -1.000000
    outer loop
      vertex 2.067324 2.247556 0.000000
      vertex 2.200000 3.000000 0.000000
      vertex 8.500000 3.623728 0.000000
    endloop
  endfacet
  facet normal -0.000000 0.000000 -1.000000
    outer loop
      vertex 1.100000 9.241679 0.000000
      vertex 1.685298 9.740379 0.000000
      vertex 1.100000 4.905256 0.000000
    endloop
  endfacet
  facet normal -0.000000 0.000000 -1.000000
    outer loop
      vertex 0.382026 8.976327 0.000000
      vertex 1.100000 9.241679 0.000000
      vertex 0.382026 5.166577 0.000000
    endloop
  endfacet
  facet normal 0.000000 0.000000 -1.000000
    outer loop
      vertex 1.100000 1.094744 0.000000
      vertex -0.022690 -10.128680 0.000000
      vertex 0.382026 0.833423 0.000000
    endloop
  endfacet
  facet normal 0.000000 0.000000 -1.000000
    outer loop
      vertex -1.100000 9.241679 0.000000
      vertex -0.382026 8.976327 0.000000
      vertex -0.382026 5.166577 0.000000
    endloop
  endfacet
  facet normal -0.000000 0.000000 -1.000000
    outer loop
      vertex 0.382026 5.166577 0.000000
      vertex 1.100000 9.241679 0.000000
      vertex 1.100000 4.905256 0.000000
    endloop
  endfacet
  facet normal 0.000000 -0.000000 -1.000000
    outer loop
      vertex -1.100000 4.905256 0.000000
      vertex -1.100000 9.241679 0.000000
      vertex -0.382026 5.166577 0.000000
    endloop
  endfacet
  facet normal 0.000000 -0.000000 -1.000000
    outer loop
      vertex -0.382026 5.166577 0.000000
      vertex -0.382026 8.976327 0.000000
      vertex 0.382026 8.976327 0.000000
    endloop
  endfacet
  facet normal 0.000000 0.000000 -1.000000
    outer loop
      vertex -2.067324 3.752444 0.000000
      vertex -1.938328 10.185400 0.000000
      vertex -1.685298 4.414133 0.000000
    endloop
  endfacet
  facet normal -0.000000 0.000000 -1.000000
    outer loop
      vertex -0.021321 -10.120919 0.000000
      vertex 8.500000 3.623728 0.000000
      vertex 0.000000 -10.124679 0.000000
    endloop
  endfacet
  facet normal 0.000000 0.000000 -1.000000
    outer loop
      vertex -1.685298 4.414133 0.000000
      vertex -1.938328 10.185400 0.000000
      vertex -1.685298 9.740379 0.000000
    endloop
  endfacet
  facet normal -0.704416 0.704416 -0.087156
    outer loop
      vertex -8.500000 3.623728 0.000000
      vertex -8.500000 5.974553 19.000000
      vertex -1.938328 10.185400 0.000000
    endloop
  endfacet
  facet normal -0.704416 0.704416 -0.087156
    outer loop
      vertex -1.685298 12.080432 13.271101
      vertex -8.500000 5.974553 19.000000
      vertex -1.522593 12.951960 19.000000
    endloop
  endfacet
  facet normal -0.704416 0.704416 -0.087156
    outer loop
      vertex -1.938328 10.185400 0.000000
      vertex -8.500000 5.974553 19.000000
      vertex -1.685298 12.080432 13.271101
    endloop
  endfacet
  facet normal 0.000000 0.000000 1.000000
    outer loop
      vertex 0.382026 12.326540 19.000000
      vertex -0.382026 12.326540 19.000000
      vertex -8.500000 5.974553 19.000000
    endloop
  endfacet
  facet normal 0.000000 -0.000000 1.000000
    outer loop
      vertex -2.600000 -1.503332 19.000000
      vertex -8.500000 -5.683227 19.000000
      vertex -0.215552 -4.222455 19.000000
    endloop
  endfacet
  facet normal 0.000000 0.000000 1.000000
    outer loop
      vertex -5.200000 3.000000 19.000000
      vertex -2.600000 7.503332 19.000000
      vertex -8.500000 5.974553 19.000000
    endloop
  endfacet
  facet normal 0.000000 0.000000 1.000000
    outer loop
      vertex 8.500000 -5.683227 19.000000
      vertex 0.202552 -4.148732 19.000000
      vertex 0.215552 -4.222455 19.000000
    endloop
  endfacet
  facet normal 0.000000 0.000000 1.000000
    outer loop
      vertex 2.600000 7.503332 19.000000
      vertex 5.200000 3.000000 19.000000
      vertex 8.500000 5.974553 19.000000
    endloop
  endfacet
  facet normal -0.000000 0.000000 1.000000
    outer loop
      vertex -2.600000 7.503332 19.000000
      vertex 1.100000 12.591892 19.000000
      vertex -8.500000 5.974553 19.000000
    endloop
  endfacet
  facet normal 0.000000 0.000000 1.000000
    outer loop
      vertex 8.500000 5.974553 19.000000
      vertex 1.522593 12.951960 19.000000
      vertex 1.100000 12.591892 19.000000
    endloop
  endfacet
  facet normal 0.000000 0.000000 1.000000
    outer loop
      vertex -2.600000 -1.503332 19.000000
      vertex -5.200000 3.000000 19.000000
      vertex -8.500000 5.974553 19.000000
    endloop
  endfacet
  facet normal -0.000000 0.000000 1.000000
    outer loop
      vertex -0.382026 12.326540 19.000000
      vertex -1.100000 12.591892 19.000000
      vertex -8.500000 5.974553 19.000000
    endloop
  endfacet
  facet normal -0.000000 0.000000 1.000000
    outer loop
      vertex -1.100000 12.591892 19.000000
      vertex -1.522593 12.951960 19.000000
      vertex -8.500000 5.974553 19.000000
    endloop
  endfacet
  facet normal 0.000000 -0.000000 1.000000
    outer loop
      vertex -8.500000 5.974553 19.000000
      vertex -8.500000 -5.683227 19.000000
      vertex -2.600000 -1.503332 19.000000
    endloop
  endfacet
  facet normal -0.000000 0.000000 1.000000
    outer loop
      vertex 2.600000 7.503332 19.000000
      vertex 1.100000 12.591892 19.000000
      vertex -2.600000 7.503332 19.000000
    endloop
  endfacet
  facet normal 0.000000 0.000000 1.000000
    outer loop
      vertex 8.500000 5.974553 19.000000
      vertex 1.100000 12.591892 19.000000
      vertex 2.600000 7.503332 19.000000
    endloop
  endfacet
  facet normal 0.000000 0.000000 1.000000
    outer loop
      vertex 8.500000 -5.683227 19.000000
      vertex 8.500000 5.974553 19.000000
      vertex 5.200000 3.000000 19.000000
    endloop
  endfacet
  facet normal 0.000000 0.000000 1.000000
    outer loop
      vertex 8.500000 -5.683227 19.000000
      vertex 5.200000 3.000000 19.000000
      vertex 2.600000 -1.503332 19.000000
    endloop
  endfacet
  facet normal 0.000000 0.000000 1.000000
    outer loop
      vertex 1.100000 12.591892 19.000000
      vertex 0.382026 12.326540 19.000000
      vertex -8.500000 5.974553 19.000000
    endloop
  endfacet
  facet normal 0.000000 -0.000000 1.000000
    outer loop
      vertex 2.600000 -1.503332 19.000000
      vertex 0.202552 -4.148732 19.000000
      vertex 8.500000 -5.683227 19.000000
    endloop
  endfacet
  facet normal 0.000000 0.000000 1.000000
    outer loop
      vertex 2.600000 -1.503332 19.000000
      vertex 0.000000 -4.184448 19.000000
      vertex 0.202552 -4.148732 19.000000
    endloop
  endfacet
  facet normal 0.000000 0.000000 1.000000
    outer loop
      vertex 2.600000 -1.503332 19.000000
      vertex -0.202552 -4.148732 19.000000
      vertex 0.000000 -4.184448 19.000000
    endloop
  endfacet
  facet normal -0.000000 0.000000 1.000000
    outer loop
      vertex -0.202552 -4.148732 19.000000
      vertex -2.600000 -1.503332 19.000000
      vertex -0.215552 -4.222455 19.000000
    endloop
  endfacet
  facet normal 0.000000 0.000000 1.000000
    outer loop
      vertex 2.600000 -1.503332 19.000000
      vertex -2.600000 -1.503332 19.000000
      vertex -0.202552 -4.148732 19.000000
    endloop
  endfacet
  facet normal 0.172354 -0.977467 -0.121869
    outer loop
      vertex -0.215552 -4.222455 19.000000
      vertex -8.500000 -5.683227 19.000000
      vertex -8.500000 -4.498779 9.500000
    endloop
  endfacet
  facet normal 0.172354 -0.977467 -0.121869
    outer loop
      vertex 0.000000 -3.000000 9.500000
      vertex -0.215552 -4.222455 19.000000
      vertex -8.500000 -4.498779 9.500000
    endloop
  endfacet
  facet normal -0.021162 -0.120018 0.992546
    outer loop
      vertex 1.489679 -11.448389 8.510190
      vertex 8.500000 -12.684498 8.510190
      vertex 8.500000 -4.498779 9.500000
    endloop
  endfacet
  facet normal -0.021162 -0.120018 0.992546
    outer loop
      vertex 0.000000 -3.000000 9.500000
      vertex 1.489679 -11.448389 8.510190
      vertex 8.500000 -4.498779 9.500000
    endloop
  endfacet
  facet normal -0.984808 -0.173648 0.000000
    outer loop
      vertex 1.489679 -11.448389 8.510190
      vertex 0.000000 -3.000000 9.500000
      vertex 1.488260 -11.440344 8.447669
    endloop
  endfacet
  facet normal 0.021162 -0.120018 0.992546
    outer loop
      vertex 0.000000 -3.000000 9.500000
      vertex 0.000000 -11.185718 8.510190
      vertex 0.202770 -11.149964 8.510190
    endloop
  endfacet
  facet normal 0.021162 -0.120018 0.992546
    outer loop
      vertex 0.215578 -11.222601 8.501133
      vertex 0.000000 -3.000000 9.500000
      vertex 0.202770 -11.149964 8.510190
    endloop
  endfacet
  facet normal 0.021162 -0.120018 0.992546
    outer loop
      vertex 0.215578 -11.222601 8.501133
      vertex 1.488260 -11.440344 8.447669
      vertex 0.000000 -3.000000 9.500000
    endloop
  endfacet
  facet normal 0.984808 -0.173648 0.000000
    outer loop
      vertex 0.000000 -3.000000 9.500000
      vertex -0.202552 -4.148732 19.000000
      vertex -0.215552 -4.222455 19.000000
    endloop
  endfacet
  facet normal -0.172354 -0.977467 -0.121869
    outer loop
      vertex 0.000000 -3.000000 9.500000
      vertex 0.000000 -4.184448 19.000000
      vertex -0.202552 -4.148732 19.000000
    endloop
  endfacet
  facet normal 0.172354 -0.977467 -0.121869
    outer loop
      vertex 0.202552 -4.148732 19.000000
      vertex 0.000000 -4.184448 19.000000
      vertex 0.000000 -3.000000 9.500000
    endloop
  endfacet
  facet normal -0.984808 -0.173648 0.000000
    outer loop
      vertex 0.202552 -4.148732 19.000000
      vertex 0.000000 -3.000000 9.500000
      vertex 0.215552 -4.222455 19.000000
    endloop
  endfacet
  facet normal -0.172354 -0.977467 -0.121869
    outer loop
      vertex 8.500000 -4.498779 9.500000
      vertex 8.500000 -5.683227 19.000000
      vertex 0.215552 -4.222455 19.000000
    endloop
  endfacet
  facet normal -0.172354 -0.977467 -0.121869
    outer loop
      vertex 0.000000 -3.000000 9.500000
      vertex 8.500000 -4.498779 9.500000
      vertex 0.215552 -4.222455 19.000000
    endloop
  endfacet
  facet normal 0.172354 -0.977467 -0.121869
    outer loop
      vertex 0.202770 -11.149964 8.510190
      vertex 0.000000 -11.185718 8.510190
      vertex 0.000000 -10.124679 0.000000
    endloop
  endfacet
  facet normal 0.172354 -0.977467 -0.121869
    outer loop
      vertex 0.021321 -10.120919 0.000000
      vertex 0.202770 -11.149964 8.510190
      vertex 0.000000 -10.124679 0.000000
    endloop
  endfacet
  facet normal -0.172354 -0.977467 -0.121869
    outer loop
      vertex -0.021321 -10.120919 0.000000
      vertex 0.000000 -10.124679 0.000000
      vertex 0.000000 -11.185718 8.510190
    endloop
  endfacet
  facet normal -0.172354 -0.977467 -0.121869
    outer loop
      vertex -0.202770 -11.149964 8.510190
      vertex -0.021321 -10.120919 0.000000
      vertex 0.000000 -11.185718 8.510190
    endloop
  endfacet
  facet normal -0.984808 -0.173648 0.000000
    outer loop
      vertex 0.021321 -10.120919 0.000000
      vertex 0.022690 -10.128680 0.000000
      vertex 0.202770 -11.149964 8.510190
    endloop
  endfacet
  facet normal -0.984808 -0.173648 -0.000000
    outer loop
      vertex 0.202770 -11.149964 8.510190
      vertex 0.022690 -10.128680 0.000000
      vertex 0.215578 -11.222601 8.501133
    endloop
  endfacet
  facet normal -0.172354 -0.977467 -0.121869
    outer loop
      vertex 8.500000 -11.623458 0.000000
      vertex 8.500000 -12.684498 8.510190
      vertex 1.489679 -11.448389 8.510190
    endloop
  endfacet
  facet normal -0.172354 -0.977467 -0.121869
    outer loop
      vertex 0.215578 -11.222601 8.501133
      vertex 8.500000 -11.623458 0.000000
      vertex 1.488260 -11.440344 8.447669
    endloop
  endfacet
  facet normal -0.172354 -0.977467 -0.121869
    outer loop
      vertex 1.488260 -11.440344 8.447669
      vertex 8.500000 -11.623458 0.000000
      vertex 1.489679 -11.448389 8.510190
    endloop
  endfacet
  facet normal -0.172354 -0.977467 -0.121869
    outer loop
      vertex 0.022690 -10.128680 0.000000
      vertex 8.500000 -11.623458 0.000000
      vertex 0.215578 -11.222601 8.501133
    endloop
  endfacet
  facet normal 1.000000 0.000000 0.000000
    outer loop
      vertex 8.500000 -4.498779 9.500000
      vertex 8.500000 -12.684498 8.510190
      vertex 8.500000 -11.623458 0.000000
    endloop
  endfacet
  facet normal 1.000000 0.000000 0.000000
    outer loop
      vertex 8.500000 5.974553 19.000000
      vertex 8.500000 -4.498779 9.500000
      vertex 8.500000 3.623728 0.000000
    endloop
  endfacet
  facet normal 1.000000 -0.000000 0.000000
    outer loop
      vertex 8.500000 3.623728 0.000000
      vertex 8.500000 -4.498779 9.500000
      vertex 8.500000 -11.623458 0.000000
    endloop
  endfacet
  facet normal 1.000000 0.000000 0.000000
    outer loop
      vertex 8.500000 -5.683227 19.000000
      vertex 8.500000 -4.498779 9.500000
      vertex 8.500000 5.974553 19.000000
    endloop
  endfacet
  facet normal 0.704416 0.704416 -0.087156
    outer loop
      vertex 8.500000 3.623728 0.000000
      vertex 1.938328 10.185400 0.000000
      vertex 8.500000 5.974553 19.000000
    endloop
  endfacet
  facet normal 0.704416 0.704416 -0.087156
    outer loop
      vertex 8.500000 5.974553 19.000000
      vertex 1.938328 10.185400 0.000000
      vertex 1.685298 12.080432 13.271101
    endloop
  endfacet
  facet normal 0.704416 0.704416 -0.087156
    outer loop
      vertex 8.500000 5.974553 19.000000
      vertex 1.685298 12.080432 13.271101
      vertex 1.522593 12.951960 19.000000
    endloop
  endfacet
  facet normal -0.866026 0.492404 -0.086824
    outer loop
      vertex 1.685298 12.080432 13.271101
      vertex 1.938328 10.185400 0.000000
      vertex 1.685298 9.740379 0.000000
    endloop
  endfacet
  facet normal -0.642787 0.754407 -0.133022
    outer loop
      vertex 1.522593 12.951960 19.000000
      vertex 1.685298 12.080432 13.271101
      vertex 1.100000 12.591892 19.000000
    endloop
  endfacet
  facet normal -0.642787 0.754407 -0.133022
    outer loop
      vertex 1.100000 12.591892 19.000000
      vertex 1.685298 12.080432 13.271101
      vertex 1.685298 9.740379 0.000000
    endloop
  endfacet
  facet normal -0.642787 0.754407 -0.133022
    outer loop
      vertex 1.100000 12.591892 19.000000
      vertex 1.685298 9.740379 0.000000
      vertex 1.100000 9.241679 0.000000
    endloop
  endfacet
  facet normal -0.342020 0.925417 -0.163176
    outer loop
      vertex 1.100000 12.591892 19.000000
      vertex 1.100000 9.241679 0.000000
      vertex 0.382026 12.326540 19.000000
    endloop
  endfacet
  facet normal -0.342020 0.925417 -0.163176
    outer loop
      vertex 0.382026 12.326540 19.000000
      vertex 1.100000 9.241679 0.000000
      vertex 0.382026 8.976327 0.000000
    endloop
  endfacet
  facet normal 0.000000 0.984808 -0.173648
    outer loop
      vertex 0.382026 12.326540 19.000000
      vertex 0.382026 8.976327 0.000000
      vertex -0.382026 12.326540 19.000000
    endloop
  endfacet
  facet normal 0.000000 0.984808 -0.173648
    outer loop
      vertex -0.382026 12.326540 19.000000
      vertex 0.382026 8.976327 0.000000
      vertex -0.382026 8.976327 0.000000
    endloop
  endfacet
  facet normal 0.342020 0.925417 -0.163176
    outer loop
      vertex -0.382026 12.326540 19.000000
      vertex -0.382026 8.976327 0.000000
      vertex -1.100000 12.591892 19.000000
    endloop
  endfacet
  facet normal 0.342020 0.925417 -0.163176
    outer loop
      vertex -1.100000 12.591892 19.000000
      vertex -0.382026 8.976327 0.000000
      vertex -1.100000 9.241679 0.000000
    endloop
  endfacet
  facet normal 0.642787 0.754407 -0.133022
    outer loop
      vertex -1.522593 12.951960 19.000000
      vertex -1.100000 12.591892 19.000000
      vertex -1.685298 12.080432 13.271101
    endloop
  endfacet
  facet normal 0.642787 0.754407 -0.133022
    outer loop
      vertex -1.685298 12.080432 13.271101
      vertex -1.100000 12.591892 19.000000
      vertex -1.100000 9.241679 0.000000
    endloop
  endfacet
  facet normal 0.642787 0.754407 -0.133022
    outer loop
      vertex -1.685298 12.080432 13.271101
      vertex -1.100000 9.241679 0.000000
      vertex -1.685298 9.740379 0.000000
    endloop
  endfacet
  facet normal 0.866026 0.492404 -0.086824
    outer loop
      vertex -1.685298 12.080432 13.271101
      vertex -1.685298 9.740379 0.000000
      vertex -1.938328 10.185400 0.000000
    endloop
  endfacet
  facet normal 0.984808 0.173648 0.000000
    outer loop
      vertex -2.200000 3.000000 13.000000
      vertex -2.067324 2.247556 13.000000
      vertex -2.067324 2.247556 0.000000
    endloop
  endfacet
  facet normal 0.984808 0.173648 0.000000
    outer loop
      vertex -2.200000 3.000000 0.000000
      vertex -2.200000 3.000000 13.000000
      vertex -2.067324 2.247556 0.000000
    endloop
  endfacet
  facet normal 0.984808 -0.173648 0.000000
    outer loop
      vertex -2.067324 3.752444 0.000000
      vertex -2.067324 3.752444 13.000000
      vertex -2.200000 3.000000 13.000000
    endloop
  endfacet
  facet normal 0.984808 -0.173648 0.000000
    outer loop
      vertex -2.200000 3.000000 0.000000
      vertex -2.067324 3.752444 0.000000
      vertex -2.200000 3.000000 13.000000
    endloop
  endfacet
  facet normal 0.866026 -0.500000 0.000000
    outer loop
      vertex -1.685298 4.414133 0.000000
      vertex -1.685298 4.414133 13.000000
      vertex -2.067324 3.752444 13.000000
    endloop
  endfacet
  facet normal 0.866026 -0.500000 0.000000
    outer loop
      vertex -2.067324 3.752444 0.000000
      vertex -1.685298 4.414133 0.000000
      vertex -2.067324 3.752444 13.000000
    endloop
  endfacet
  facet normal 0.642787 -0.766045 0.000000
    outer loop
      vertex -1.100000 4.905256 0.000000
      vertex -1.100000 4.905256 13.000000
      vertex -1.685298 4.414133 13.000000
    endloop
  endfacet
  facet normal 0.642787 -0.766045 0.000000
    outer loop
      vertex -1.685298 4.414133 0.000000
      vertex -1.100000 4.905256 0.000000
      vertex -1.685298 4.414133 13.000000
    endloop
  endfacet
  facet normal 0.342020 -0.939693 0.000000
    outer loop
      vertex -0.382026 5.166577 0.000000
      vertex -0.382026 5.166577 13.000000
      vertex -1.100000 4.905256 13.000000
    endloop
  endfacet
  facet normal 0.342020 -0.939693 0.000000
    outer loop
      vertex -1.100000 4.905256 0.000000
      vertex -0.382026 5.166577 0.000000
      vertex -1.100000 4.905256 13.000000
    endloop
  endfacet
  facet normal 0.000000 -1.000000 0.000000
    outer loop
      vertex 0.382026 5.166577 0.000000
      vertex 0.382026 5.166577 13.000000
      vertex -0.382026 5.166577 13.000000
    endloop
  endfacet
  facet normal -0.000000 -1.000000 -0.000000
    outer loop
      vertex -0.382026 5.166577 0.000000
      vertex 0.382026 5.166577 0.000000
      vertex -0.382026 5.166577 13.000000
    endloop
  endfacet
  facet normal -0.342020 -0.939693 -0.000000
    outer loop
      vertex 1.100000 4.905256 0.000000
      vertex 1.100000 4.905256 13.000000
      vertex 0.382026 5.166577 13.000000
    endloop
  endfacet
  facet normal -0.342020 -0.939693 -0.000000
    outer loop
      vertex 0.382026 5.166577 0.000000
      vertex 1.100000 4.905256 0.000000
      vertex 0.382026 5.166577 13.000000
    endloop
  endfacet
  facet normal -0.642787 -0.766045 -0.000000
    outer loop
      vertex 1.685298 4.414133 0.000000
      vertex 1.685298 4.414133 13.000000
      vertex 1.100000 4.905256 13.000000
    endloop
  endfacet
  facet normal -0.642787 -0.766045 -0.000000
    outer loop
      vertex 1.100000 4.905256 0.000000
      vertex 1.685298 4.414133 0.000000
      vertex 1.100000 4.905256 13.000000
    endloop
  endfacet
  facet normal -0.866026 -0.500000 0.000000
    outer loop
      vertex 2.067324 3.752444 13.000000
      vertex 1.685298 4.414133 13.000000
      vertex 2.067324 3.752444 0.000000
    endloop
  endfacet
  facet normal -0.866026 -0.500000 0.000000
    outer loop
      vertex 2.067324 3.752444 0.000000
      vertex 1.685298 4.414133 13.000000
      vertex 1.685298 4.414133 0.000000
    endloop
  endfacet
  facet normal -0.984808 -0.173648 0.000000
    outer loop
      vertex 2.200000 3.000000 13.000000
      vertex 2.067324 3.752444 13.000000
      vertex 2.200000 3.000000 0.000000
    endloop
  endfacet
  facet normal -0.984808 -0.173648 0.000000
    outer loop
      vertex 2.200000 3.000000 0.000000
      vertex 2.067324 3.752444 13.000000
      vertex 2.067324 3.752444 0.000000
    endloop
  endfacet
  facet normal -0.984808 0.173648 0.000000
    outer loop
      vertex 2.200000 3.000000 13.000000
      vertex 2.200000 3.000000 0.000000
      vertex 2.067324 2.247556 13.000000
    endloop
  endfacet
  facet normal -0.984808 0.173648 0.000000
    outer loop
      vertex 2.067324 2.247556 13.000000
      vertex 2.200000 3.000000 0.000000
      vertex 2.067324 2.247556 0.000000
    endloop
  endfacet
  facet normal -0.866026 0.500000 0.000000
    outer loop
      vertex 2.067324 2.247556 13.000000
      vertex 2.067324 2.247556 0.000000
      vertex 1.685298 1.585867 13.000000
    endloop
  endfacet
  facet normal -0.866026 0.500000 0.000000
    outer loop
      vertex 1.685298 1.585867 13.000000
      vertex 2.067324 2.247556 0.000000
      vertex 1.685298 1.585867 0.000000
    endloop
  endfacet
  facet normal -0.642787 0.766045 0.000000
    outer loop
      vertex 1.685298 1.585867 13.000000
      vertex 1.685298 1.585867 0.000000
      vertex 1.100000 1.094744 13.000000
    endloop
  endfacet
  facet normal -0.642787 0.766045 0.000000
    outer loop
      vertex 1.100000 1.094744 13.000000
      vertex 1.685298 1.585867 0.000000
      vertex 1.100000 1.094744 0.000000
    endloop
  endfacet
  facet normal -0.342020 0.939693 0.000000
    outer loop
      vertex 1.100000 1.094744 13.000000
      vertex 1.100000 1.094744 0.000000
      vertex 0.382026 0.833423 13.000000
    endloop
  endfacet
  facet normal -0.342020 0.939693 0.000000
    outer loop
      vertex 0.382026 0.833423 13.000000
      vertex 1.100000 1.094744 0.000000
      vertex 0.382026 0.833423 0.000000
    endloop
  endfacet
  facet normal 0.000000 1.000000 0.000000
    outer loop
      vertex 0.382026 0.833423 13.000000
      vertex 0.382026 0.833423 0.000000
      vertex -0.382026 0.833423 13.000000
    endloop
  endfacet
  facet normal 0.000000 1.000000 -0.000000
    outer loop
      vertex -0.382026 0.833423 13.000000
      vertex 0.382026 0.833423 0.000000
      vertex -0.382026 0.833423 0.000000
    endloop
  endfacet
  facet normal 0.342020 0.939693 -0.000000
    outer loop
      vertex -0.382026 0.833423 13.000000
      vertex -0.382026 0.833423 0.000000
      vertex -1.100000 1.094744 13.000000
    endloop
  endfacet
  facet normal 0.342020 0.939693 -0.000000
    outer loop
      vertex -1.100000 1.094744 13.000000
      vertex -0.382026 0.833423 0.000000
      vertex -1.100000 1.094744 0.000000
    endloop
  endfacet
  facet normal 0.642787 0.766045 -0.000000
    outer loop
      vertex -1.100000 1.094744 13.000000
      vertex -1.100000 1.094744 0.000000
      vertex -1.685298 1.585867 13.000000
    endloop
  endfacet
  facet normal 0.642787 0.766045 -0.000000
    outer loop
      vertex -1.685298 1.585867 13.000000
      vertex -1.100000 1.094744 0.000000
      vertex -1.685298 1.585867 0.000000
    endloop
  endfacet
  facet normal 0.866026 0.500000 0.000000
    outer loop
      vertex -2.067324 2.247556 13.000000
      vertex -1.685298 1.585867 13.000000
      vertex -1.685298 1.585867 0.000000
    endloop
  endfacet
  facet normal 0.866026 0.500000 0.000000
    outer loop
      vertex -2.067324 2.247556 0.000000
      vertex -2.067324 2.247556 13.000000
      vertex -1.685298 1.585867 0.000000
    endloop
  endfacet
  facet normal 0.866025 0.500000 0.000000
    outer loop
      vertex -5.200000 3.000000 19.000000
      vertex -2.600000 -1.503332 19.000000
      vertex -2.600000 -1.503332 13.000000
    endloop
  endfacet
  facet normal 0.866025 0.500000 0.000000
    outer loop
      vertex -5.200000 3.000000 13.000000
      vertex -5.200000 3.000000 19.000000
      vertex -2.600000 -1.503332 13.000000
    endloop
  endfacet
  facet normal 0.000000 1.000000 0.000000
    outer loop
      vertex 2.600000 -1.503332 19.000000
      vertex 2.600000 -1.503332 13.000000
      vertex -2.600000 -1.503332 19.000000
    endloop
  endfacet
  facet normal 0.000000 1.000000 -0.000000
    outer loop
      vertex -2.600000 -1.503332 19.000000
      vertex 2.600000 -1.503332 13.000000
      vertex -2.600000 -1.503332 13.000000
    endloop
  endfacet
  facet normal -0.866025 0.500000 0.000000
    outer loop
      vertex 5.200000 3.000000 19.000000
      vertex 5.200000 3.000000 13.000000
      vertex 2.600000 -1.503332 19.000000
    endloop
  endfacet
  facet normal -0.866025 0.500000 0.000000
    outer loop
      vertex 2.600000 -1.503332 19.000000
      vertex 5.200000 3.000000 13.000000
      vertex 2.600000 -1.503332 13.000000
    endloop
  endfacet
  facet normal -0.866025 -0.500000 0.000000
    outer loop
      vertex 5.200000 3.000000 19.000000
      vertex 2.600000 7.503332 19.000000
      vertex 5.200000 3.000000 13.000000
    endloop
  endfacet
  facet normal -0.866025 -0.500000 0.000000
    outer loop
      vertex 5.200000 3.000000 13.000000
      vertex 2.600000 7.503332 19.000000
      vertex 2.600000 7.503332 13.000000
    endloop
  endfacet
  facet normal 0.000000 -1.000000 0.000000
    outer loop
      vertex 2.600000 7.503332 13.000000
      vertex 2.600000 7.503332 19.000000
      vertex -2.600000 7.503332 19.000000
    endloop
  endfacet
  facet normal -0.000000 -1.000000 -0.000000
    outer loop
      vertex -2.600000 7.503332 13.000000
      vertex 2.600000 7.503332 13.000000
      vertex -2.600000 7.503332 19.000000
    endloop
  endfacet
  facet normal 0.866025 -0.500000 0.000000
    outer loop
      vertex -2.600000 7.503332 13.000000
      vertex -2.600000 7.503332 19.000000
      vertex -5.200000 3.000000 19.000000
    endloop
  endfacet
  facet normal 0.866025 -0.500000 0.000000
    outer loop
      vertex -5.200000 3.000000 13.000000
      vertex -2.600000 7.503332 13.000000
      vertex -5.200000 3.000000 19.000000
    endloop
  endfacet
  facet normal 0.000000 0.000000 1.000000
    outer loop
      vertex -2.600000 -1.503332 13.000000
      vertex 2.600000 -1.503332 13.000000
      vertex 5.200000 3.000000 13.000000
    endloop
  endfacet
  facet normal 0.000000 0.000000 1.000000
    outer loop
      vertex 0.382026 0.833423 13.000000
      vertex -0.382026 0.833423 13.000000
      vertex -2.600000 -1.503332 13.000000
    endloop
  endfacet
  facet normal 0.000000 -0.000000 1.000000
    outer loop
      vertex 1.100000 1.094744 13.000000
      vertex -2.600000 -1.503332 13.000000
      vertex 5.200000 3.000000 13.000000
    endloop
  endfacet
  facet normal 0.000000 0.000000 1.000000
    outer loop
      vertex -5.200000 3.000000 13.000000
      vertex -2.600000 -1.503332 13.000000
      vertex -2.600000 7.503332 13.000000
    endloop
  endfacet
  facet normal 0.000000 -0.000000 1.000000
    outer loop
      vertex -2.600000 7.503332 13.000000
      vertex -2.600000 -1.503332 13.000000
      vertex -2.200000 3.000000 13.000000
    endloop
  endfacet
  facet normal 0.000000 0.000000 1.000000
    outer loop
      vertex 1.100000 4.905256 13.000000
      vertex 1.685298 4.414133 13.000000
      vertex 2.600000 7.503332 13.000000
    endloop
  endfacet
  facet normal 0.000000 0.000000 1.000000
    outer loop
      vertex -2.600000 7.503332 13.000000
      vertex -2.200000 3.000000 13.000000
      vertex -2.067324 3.752444 13.000000
    endloop
  endfacet
  facet normal 0.000000 0.000000 1.000000
    outer loop
      vertex -2.600000 7.503332 13.000000
      vertex -2.067324 3.752444 13.000000
      vertex -1.685298 4.414133 13.000000
    endloop
  endfacet
  facet normal 0.000000 0.000000 1.000000
    outer loop
      vertex -2.600000 7.503332 13.000000
      vertex -1.100000 4.905256 13.000000
      vertex 2.600000 7.503332 13.000000
    endloop
  endfacet
  facet normal 0.000000 0.000000 1.000000
    outer loop
      vertex -2.600000 7.503332 13.000000
      vertex -1.685298 4.414133 13.000000
      vertex -1.100000 4.905256 13.000000
    endloop
  endfacet
  facet normal 0.000000 0.000000 1.000000
    outer loop
      vertex 0.382026 5.166577 13.000000
      vertex 1.100000 4.905256 13.000000
      vertex 2.600000 7.503332 13.000000
    endloop
  endfacet
  facet normal 0.000000 -0.000000 1.000000
    outer loop
      vertex 2.600000 7.503332 13.000000
      vertex 1.685298 4.414133 13.000000
      vertex 5.200000 3.000000 13.000000
    endloop
  endfacet
  facet normal 0.000000 0.000000 1.000000
    outer loop
      vertex 1.685298 4.414133 13.000000
      vertex 2.067324 3.752444 13.000000
      vertex 5.200000 3.000000 13.000000
    endloop
  endfacet
  facet normal 0.000000 0.000000 1.000000
    outer loop
      vertex 2.067324 3.752444 13.000000
      vertex 2.200000 3.000000 13.000000
      vertex 5.200000 3.000000 13.000000
    endloop
  endfacet
  facet normal 0.000000 -0.000000 1.000000
    outer loop
      vertex 2.200000 3.000000 13.000000
      vertex 2.067324 2.247556 13.000000
      vertex 5.200000 3.000000 13.000000
    endloop
  endfacet
  facet normal 0.000000 -0.000000 1.000000
    outer loop
      vertex 2.067324 2.247556 13.000000
      vertex 1.685298 1.585867 13.000000
      vertex 5.200000 3.000000 13.000000
    endloop
  endfacet
  facet normal 0.000000 -0.000000 1.000000
    outer loop
      vertex 1.685298 1.585867 13.000000
      vertex 1.100000 1.094744 13.000000
      vertex 5.200000 3.000000 13.000000
    endloop
  endfacet
  facet normal -0.000000 0.000000 1.000000
    outer loop
      vertex -0.382026 0.833423 13.000000
      vertex -1.100000 1.094744 13.000000
      vertex -2.600000 -1.503332 13.000000
    endloop
  endfacet
  facet normal -0.000000 0.000000 1.000000
    outer loop
      vertex -1.100000 1.094744 13.000000
      vertex -1.685298 1.585867 13.000000
      vertex -2.600000 -1.503332 13.000000
    endloop
  endfacet
  facet normal 0.000000 0.000000 1.000000
    outer loop
      vertex 1.100000 1.094744 13.000000
      vertex 0.382026 0.833423 13.000000
      vertex -2.600000 -1.503332 13.000000
    endloop
  endfacet
  facet normal 0.000000 -0.000000 1.000000
    outer loop
      vertex -2.067324 2.247556 13.000000
      vertex -2.600000 -1.503332 13.000000
      vertex -1.685298 1.585867 13.000000
    endloop
  endfacet
  facet normal 0.000000 -0.000000 1.000000
    outer loop
      vertex -2.200000 3.000000 13.000000
      vertex -2.600000 -1.503332 13.000000
      vertex -2.067324 2.247556 13.000000
    endloop
  endfacet
  facet normal 0.000000 0.000000 1.000000
    outer loop
      vertex -1.100000 4.905256 13.000000
      vertex -0.382026 5.166577 13.000000
      vertex 2.600000 7.503332 13.000000
    endloop
  endfacet
  facet normal 0.000000 0.000000 1.000000
    outer loop
      vertex -0.382026 5.166577 13.000000
      vertex 0.382026 5.166577 13.000000
      vertex 2.600000 7.503332 13.000000
    endloop
  endfacet
endsolid OpenSCAD_Model
